# Tiled2Unity generated file. Do not modify by hand.
# Wavefront file for 'RightRoom_mesh_0003.obj'

# Vertices (Count = 360)
v 0 -16 0
v -16 -16 0
v -16 0 0
v 0 0 0
v -16 -16 0
v -32 -16 0
v -32 0 0
v -16 0 0
v -32 -16 0
v -48 -16 0
v -48 0 0
v -32 0 0
v -48 -16 0
v -64 -16 0
v -64 0 0
v -48 0 0
v -64 -16 0
v -80 -16 0
v -80 0 0
v -64 0 0
v -80 -16 0
v -96 -16 0
v -96 0 0
v -80 0 0
v -96 -16 0
v -112 -16 0
v -112 0 0
v -96 0 0
v -112 -16 0
v -128 -16 0
v -128 0 0
v -112 0 0
v -128 -16 0
v -144 -16 0
v -144 0 0
v -128 0 0
v -144 -16 0
v -160 -16 0
v -160 0 0
v -144 0 0
v -160 -16 0
v -176 -16 0
v -176 0 0
v -160 0 0
v -176 -16 0
v -192 -16 0
v -192 0 0
v -176 0 0
v -192 -16 0
v -208 -16 0
v -208 0 0
v -192 0 0
v -208 -16 0
v -224 -16 0
v -224 0 0
v -208 0 0
v -224 -16 0
v -240 -16 0
v -240 0 0
v -224 0 0
v -240 -16 0
v -256 -16 0
v -256 0 0
v -240 0 0
v -256 -16 0
v -272 -16 0
v -272 0 0
v -256 0 0
v -272 -16 0
v -288 -16 0
v -288 0 0
v -272 0 0
v -288 -16 0
v -304 -16 0
v -304 0 0
v -288 0 0
v -304 -16 0
v -320 -16 0
v -320 0 0
v -304 0 0
v 0 -32 0
v -16 -32 0
v -16 -16 0
v 0 -16 0
v -16 -32 0
v -32 -32 0
v -32 -16 0
v -16 -16 0
v -32 -32 0
v -48 -32 0
v -48 -16 0
v -32 -16 0
v -48 -32 0
v -64 -32 0
v -64 -16 0
v -48 -16 0
v -64 -32 0
v -80 -32 0
v -80 -16 0
v -64 -16 0
v -80 -32 0
v -96 -32 0
v -96 -16 0
v -80 -16 0
v -96 -32 0
v -112 -32 0
v -112 -16 0
v -96 -16 0
v -112 -32 0
v -128 -32 0
v -128 -16 0
v -112 -16 0
v -128 -32 0
v -144 -32 0
v -144 -16 0
v -128 -16 0
v -144 -32 0
v -160 -32 0
v -160 -16 0
v -144 -16 0
v -160 -32 0
v -176 -32 0
v -176 -16 0
v -160 -16 0
v -176 -32 0
v -192 -32 0
v -192 -16 0
v -176 -16 0
v -192 -32 0
v -208 -32 0
v -208 -16 0
v -192 -16 0
v -208 -32 0
v -224 -32 0
v -224 -16 0
v -208 -16 0
v -224 -32 0
v -240 -32 0
v -240 -16 0
v -224 -16 0
v -240 -32 0
v -256 -32 0
v -256 -16 0
v -240 -16 0
v -256 -32 0
v -272 -32 0
v -272 -16 0
v -256 -16 0
v -272 -32 0
v -288 -32 0
v -288 -16 0
v -272 -16 0
v -288 -32 0
v -304 -32 0
v -304 -16 0
v -288 -16 0
v -304 -32 0
v -320 -32 0
v -320 -16 0
v -304 -16 0
v 0 -48 0
v -16 -48 0
v -16 -32 0
v 0 -32 0
v -304 -48 0
v -320 -48 0
v -320 -32 0
v -304 -32 0
v 0 -64 0
v -16 -64 0
v -16 -48 0
v 0 -48 0
v -304 -64 0
v -320 -64 0
v -320 -48 0
v -304 -48 0
v 0 -80 0
v -16 -80 0
v -16 -64 0
v 0 -64 0
v -304 -80 0
v -320 -80 0
v -320 -64 0
v -304 -64 0
v 0 -96 0
v -16 -96 0
v -16 -80 0
v 0 -80 0
v -304 -96 0
v -320 -96 0
v -320 -80 0
v -304 -80 0
v 0 -112 0
v -16 -112 0
v -16 -96 0
v 0 -96 0
v -304 -112 0
v -320 -112 0
v -320 -96 0
v -304 -96 0
v 0 -128 0
v -16 -128 0
v -16 -112 0
v 0 -112 0
v -304 -128 0
v -320 -128 0
v -320 -112 0
v -304 -112 0
v 0 -144 0
v -16 -144 0
v -16 -128 0
v 0 -128 0
v -304 -144 0
v -320 -144 0
v -320 -128 0
v -304 -128 0
v 0 -160 0
v -16 -160 0
v -16 -144 0
v 0 -144 0
v 0 -176 0
v -16 -176 0
v -16 -160 0
v 0 -160 0
v 0 -192 0
v -16 -192 0
v -16 -176 0
v 0 -176 0
v 0 -208 0
v -16 -208 0
v -16 -192 0
v 0 -192 0
v 0 -224 0
v -16 -224 0
v -16 -208 0
v 0 -208 0
v -304 -224 0
v -320 -224 0
v -320 -208 0
v -304 -208 0
v 0 -240 0
v -16 -240 0
v -16 -224 0
v 0 -224 0
v -304 -240 0
v -320 -240 0
v -320 -224 0
v -304 -224 0
v 0 -256 0
v -16 -256 0
v -16 -240 0
v 0 -240 0
v -304 -256 0
v -320 -256 0
v -320 -240 0
v -304 -240 0
v 0 -272 0
v -16 -272 0
v -16 -256 0
v 0 -256 0
v -304 -272 0
v -320 -272 0
v -320 -256 0
v -304 -256 0
v 0 -288 0
v -16 -288 0
v -16 -272 0
v 0 -272 0
v -304 -288 0
v -320 -288 0
v -320 -272 0
v -304 -272 0
v 0 -304 0
v -16 -304 0
v -16 -288 0
v 0 -288 0
v -304 -304 0
v -320 -304 0
v -320 -288 0
v -304 -288 0
v 0 -320 0
v -16 -320 0
v -16 -304 0
v 0 -304 0
v -16 -320 0
v -32 -320 0
v -32 -304 0
v -16 -304 0
v -32 -320 0
v -48 -320 0
v -48 -304 0
v -32 -304 0
v -48 -320 0
v -64 -320 0
v -64 -304 0
v -48 -304 0
v -64 -320 0
v -80 -320 0
v -80 -304 0
v -64 -304 0
v -80 -320 0
v -96 -320 0
v -96 -304 0
v -80 -304 0
v -96 -320 0
v -112 -320 0
v -112 -304 0
v -96 -304 0
v -112 -320 0
v -128 -320 0
v -128 -304 0
v -112 -304 0
v -128 -320 0
v -144 -320 0
v -144 -304 0
v -128 -304 0
v -144 -320 0
v -160 -320 0
v -160 -304 0
v -144 -304 0
v -160 -320 0
v -176 -320 0
v -176 -304 0
v -160 -304 0
v -176 -320 0
v -192 -320 0
v -192 -304 0
v -176 -304 0
v -192 -320 0
v -208 -320 0
v -208 -304 0
v -192 -304 0
v -208 -320 0
v -224 -320 0
v -224 -304 0
v -208 -304 0
v -224 -320 0
v -240 -320 0
v -240 -304 0
v -224 -304 0
v -240 -320 0
v -256 -320 0
v -256 -304 0
v -240 -304 0
v -256 -320 0
v -272 -320 0
v -272 -304 0
v -256 -304 0
v -272 -320 0
v -288 -320 0
v -288 -304 0
v -272 -304 0
v -288 -320 0
v -304 -320 0
v -304 -304 0
v -288 -304 0
v -304 -320 0
v -320 -320 0
v -320 -304 0
v -304 -304 0

# Texture cooridinates (Count = 25)
vt 0.12 0.88
vt 0.16 0.88
vt 0.16 0.92
vt 0.12 0.92
vt 0.08 0.8
vt 0.12 0.8
vt 0.12 0.84
vt 0.08 0.84
vt 0.04 0.88
vt 0.08 0.88
vt 0.08 0.92
vt 0.04 0.92
vt 0.16 0.84
vt 0.04 0.76
vt 0.08 0.76
vt 0.04 0.8
vt 0.12 0.76
vt 0.04 0.84
vt 0.04 0.96
vt 0.08 0.96
vt 0.08 1
vt 0.04 1
vt 0.16 0.96
vt 0.12 0.96
vt 0.12 1

# Normal
vn 0 0 -1

# Mesh description
g RightRoom_mesh_0003

# Faces
f 1/1/1 2/2/1 3/3/1 4/4/1
f 5/5/1 6/6/1 7/7/1 8/8/1
f 9/5/1 10/6/1 11/7/1 12/8/1
f 13/5/1 14/6/1 15/7/1 16/8/1
f 17/5/1 18/6/1 19/7/1 20/8/1
f 21/5/1 22/6/1 23/7/1 24/8/1
f 25/5/1 26/6/1 27/7/1 28/8/1
f 29/5/1 30/6/1 31/7/1 32/8/1
f 33/5/1 34/6/1 35/7/1 36/8/1
f 37/5/1 38/6/1 39/7/1 40/8/1
f 41/5/1 42/6/1 43/7/1 44/8/1
f 45/5/1 46/6/1 47/7/1 48/8/1
f 49/5/1 50/6/1 51/7/1 52/8/1
f 53/5/1 54/6/1 55/7/1 56/8/1
f 57/5/1 58/6/1 59/7/1 60/8/1
f 61/5/1 62/6/1 63/7/1 64/8/1
f 65/5/1 66/6/1 67/7/1 68/8/1
f 69/5/1 70/6/1 71/7/1 72/8/1
f 73/5/1 74/6/1 75/7/1 76/8/1
f 77/9/1 78/10/1 79/11/1 80/12/1
f 81/7/1 82/13/1 83/2/1 84/1/1
f 85/14/1 86/15/1 87/5/1 88/16/1
f 89/14/1 90/15/1 91/5/1 92/16/1
f 93/14/1 94/15/1 95/5/1 96/16/1
f 97/14/1 98/15/1 99/5/1 100/16/1
f 101/14/1 102/15/1 103/5/1 104/16/1
f 105/14/1 106/15/1 107/5/1 108/16/1
f 109/14/1 110/15/1 111/5/1 112/16/1
f 113/15/1 114/17/1 115/6/1 116/5/1
f 117/15/1 118/17/1 119/6/1 120/5/1
f 121/15/1 122/17/1 123/6/1 124/5/1
f 125/15/1 126/17/1 127/6/1 128/5/1
f 129/14/1 130/15/1 131/5/1 132/16/1
f 133/14/1 134/15/1 135/5/1 136/16/1
f 137/14/1 138/15/1 139/5/1 140/16/1
f 141/14/1 142/15/1 143/5/1 144/16/1
f 145/14/1 146/15/1 147/5/1 148/16/1
f 149/14/1 150/15/1 151/5/1 152/16/1
f 153/14/1 154/15/1 155/5/1 156/16/1
f 157/18/1 158/8/1 159/10/1 160/9/1
f 161/7/1 162/13/1 163/2/1 164/1/1
f 165/18/1 166/8/1 167/10/1 168/9/1
f 169/7/1 170/13/1 171/2/1 172/1/1
f 173/18/1 174/8/1 175/10/1 176/9/1
f 177/7/1 178/13/1 179/2/1 180/1/1
f 181/18/1 182/8/1 183/10/1 184/9/1
f 185/7/1 186/13/1 187/2/1 188/1/1
f 189/18/1 190/8/1 191/10/1 192/9/1
f 193/7/1 194/13/1 195/2/1 196/1/1
f 197/18/1 198/8/1 199/10/1 200/9/1
f 201/7/1 202/13/1 203/2/1 204/1/1
f 205/16/1 206/5/1 207/8/1 208/18/1
f 209/7/1 210/13/1 211/2/1 212/1/1
f 213/15/1 214/17/1 215/6/1 216/5/1
f 217/7/1 218/13/1 219/2/1 220/1/1
f 221/7/1 222/13/1 223/2/1 224/1/1
f 225/7/1 226/13/1 227/2/1 228/1/1
f 229/7/1 230/13/1 231/2/1 232/1/1
f 233/7/1 234/13/1 235/2/1 236/1/1
f 237/19/1 238/20/1 239/21/1 240/22/1
f 241/7/1 242/13/1 243/2/1 244/1/1
f 245/18/1 246/8/1 247/10/1 248/9/1
f 249/7/1 250/13/1 251/2/1 252/1/1
f 253/18/1 254/8/1 255/10/1 256/9/1
f 257/7/1 258/13/1 259/2/1 260/1/1
f 261/18/1 262/8/1 263/10/1 264/9/1
f 265/7/1 266/13/1 267/2/1 268/1/1
f 269/18/1 270/8/1 271/10/1 272/9/1
f 273/7/1 274/13/1 275/2/1 276/1/1
f 277/18/1 278/8/1 279/10/1 280/9/1
f 281/4/1 282/3/1 283/23/1 284/24/1
f 285/20/1 286/24/1 287/25/1 288/21/1
f 289/20/1 290/24/1 291/25/1 292/21/1
f 293/20/1 294/24/1 295/25/1 296/21/1
f 297/20/1 298/24/1 299/25/1 300/21/1
f 301/20/1 302/24/1 303/25/1 304/21/1
f 305/20/1 306/24/1 307/25/1 308/21/1
f 309/20/1 310/24/1 311/25/1 312/21/1
f 313/20/1 314/24/1 315/25/1 316/21/1
f 317/20/1 318/24/1 319/25/1 320/21/1
f 321/20/1 322/24/1 323/25/1 324/21/1
f 325/20/1 326/24/1 327/25/1 328/21/1
f 329/20/1 330/24/1 331/25/1 332/21/1
f 333/20/1 334/24/1 335/25/1 336/21/1
f 337/20/1 338/24/1 339/25/1 340/21/1
f 341/20/1 342/24/1 343/25/1 344/21/1
f 345/20/1 346/24/1 347/25/1 348/21/1
f 349/20/1 350/24/1 351/25/1 352/21/1
f 353/20/1 354/24/1 355/25/1 356/21/1
f 357/12/1 358/11/1 359/20/1 360/19/1

