# Tiled2Unity generated file. Do not modify by hand.
# Wavefront file for 'RightRoom_mesh_0002.obj'

# Vertices (Count = 12)
v -48 -64 0
v -64 -64 0
v -64 -48 0
v -48 -48 0
v -112 -64 0
v -128 -64 0
v -128 -48 0
v -112 -48 0
v -240 -256 0
v -256 -256 0
v -256 -240 0
v -240 -240 0

# Texture cooridinates (Count = 4)
vt 0.28 0.07999998
vt 0.32 0.07999998
vt 0.32 0.12
vt 0.28 0.12

# Normal
vn 0 0 -1

# Mesh description
g RightRoom_mesh_0002

# Faces
f 1/1/1 2/2/1 3/3/1 4/4/1
f 5/1/1 6/2/1 7/3/1 8/4/1
f 9/1/1 10/2/1 11/3/1 12/4/1

