# Tiled2Unity generated file. Do not modify by hand.
# Wavefront file for 'TopLeftRoom_mesh_0004.obj'

# Vertices (Count = 320)
v -16 -16 0
v -32 -16 0
v -32 0 0
v -16 0 0
v -32 -16 0
v -48 -16 0
v -48 0 0
v -32 0 0
v -48 -16 0
v -64 -16 0
v -64 0 0
v -48 0 0
v -64 -16 0
v -80 -16 0
v -80 0 0
v -64 0 0
v -80 -16 0
v -96 -16 0
v -96 0 0
v -80 0 0
v -96 -16 0
v -112 -16 0
v -112 0 0
v -96 0 0
v -112 -16 0
v -128 -16 0
v -128 0 0
v -112 0 0
v -192 -16 0
v -208 -16 0
v -208 0 0
v -192 0 0
v -208 -16 0
v -224 -16 0
v -224 0 0
v -208 0 0
v -224 -16 0
v -240 -16 0
v -240 0 0
v -224 0 0
v -240 -16 0
v -256 -16 0
v -256 0 0
v -240 0 0
v -256 -16 0
v -272 -16 0
v -272 0 0
v -256 0 0
v -272 -16 0
v -288 -16 0
v -288 0 0
v -272 0 0
v -288 -16 0
v -304 -16 0
v -304 0 0
v -288 0 0
v -16 -32 0
v -32 -32 0
v -32 -16 0
v -16 -16 0
v -32 -32 0
v -48 -32 0
v -48 -16 0
v -32 -16 0
v -48 -32 0
v -64 -32 0
v -64 -16 0
v -48 -16 0
v -64 -32 0
v -80 -32 0
v -80 -16 0
v -64 -16 0
v -80 -32 0
v -96 -32 0
v -96 -16 0
v -80 -16 0
v -96 -32 0
v -112 -32 0
v -112 -16 0
v -96 -16 0
v -112 -32 0
v -128 -32 0
v -128 -16 0
v -112 -16 0
v -192 -32 0
v -208 -32 0
v -208 -16 0
v -192 -16 0
v -208 -32 0
v -224 -32 0
v -224 -16 0
v -208 -16 0
v -224 -32 0
v -240 -32 0
v -240 -16 0
v -224 -16 0
v -240 -32 0
v -256 -32 0
v -256 -16 0
v -240 -16 0
v -256 -32 0
v -272 -32 0
v -272 -16 0
v -256 -16 0
v -272 -32 0
v -288 -32 0
v -288 -16 0
v -272 -16 0
v -288 -32 0
v -304 -32 0
v -304 -16 0
v -288 -16 0
v -16 -48 0
v -32 -48 0
v -32 -32 0
v -16 -32 0
v -32 -48 0
v -48 -48 0
v -48 -32 0
v -32 -32 0
v -48 -48 0
v -64 -48 0
v -64 -32 0
v -48 -32 0
v -64 -48 0
v -80 -48 0
v -80 -32 0
v -64 -32 0
v -80 -48 0
v -96 -48 0
v -96 -32 0
v -80 -32 0
v -96 -48 0
v -112 -48 0
v -112 -32 0
v -96 -32 0
v -112 -48 0
v -128 -48 0
v -128 -32 0
v -112 -32 0
v -192 -48 0
v -208 -48 0
v -208 -32 0
v -192 -32 0
v -208 -48 0
v -224 -48 0
v -224 -32 0
v -208 -32 0
v -224 -48 0
v -240 -48 0
v -240 -32 0
v -224 -32 0
v -240 -48 0
v -256 -48 0
v -256 -32 0
v -240 -32 0
v -256 -48 0
v -272 -48 0
v -272 -32 0
v -256 -32 0
v -272 -48 0
v -288 -48 0
v -288 -32 0
v -272 -32 0
v -288 -48 0
v -304 -48 0
v -304 -32 0
v -288 -32 0
v -160 -80 0
v -176 -80 0
v -176 -64 0
v -160 -64 0
v -160 -96 0
v -176 -96 0
v -176 -80 0
v -160 -80 0
v -64 -128 0
v -80 -128 0
v -80 -112 0
v -64 -112 0
v -64 -144 0
v -80 -144 0
v -80 -128 0
v -64 -128 0
v -80 -192 0
v -96 -192 0
v -96 -176 0
v -80 -176 0
v -96 -192 0
v -112 -192 0
v -112 -176 0
v -96 -176 0
v -112 -192 0
v -128 -192 0
v -128 -176 0
v -112 -176 0
v -128 -192 0
v -144 -192 0
v -144 -176 0
v -128 -176 0
v -144 -192 0
v -160 -192 0
v -160 -176 0
v -144 -176 0
v -160 -192 0
v -176 -192 0
v -176 -176 0
v -160 -176 0
v -176 -192 0
v -192 -192 0
v -192 -176 0
v -176 -176 0
v -192 -192 0
v -208 -192 0
v -208 -176 0
v -192 -176 0
v -208 -192 0
v -224 -192 0
v -224 -176 0
v -208 -176 0
v -224 -192 0
v -240 -192 0
v -240 -176 0
v -224 -176 0
v -80 -208 0
v -96 -208 0
v -96 -192 0
v -80 -192 0
v -96 -208 0
v -112 -208 0
v -112 -192 0
v -96 -192 0
v -112 -208 0
v -128 -208 0
v -128 -192 0
v -112 -192 0
v -128 -208 0
v -144 -208 0
v -144 -192 0
v -128 -192 0
v -144 -208 0
v -160 -208 0
v -160 -192 0
v -144 -192 0
v -160 -208 0
v -176 -208 0
v -176 -192 0
v -160 -192 0
v -176 -208 0
v -192 -208 0
v -192 -192 0
v -176 -192 0
v -192 -208 0
v -208 -208 0
v -208 -192 0
v -192 -192 0
v -208 -208 0
v -224 -208 0
v -224 -192 0
v -208 -192 0
v -224 -208 0
v -240 -208 0
v -240 -192 0
v -224 -192 0
v -64 -224 0
v -80 -224 0
v -80 -208 0
v -64 -208 0
v -80 -224 0
v -96 -224 0
v -96 -208 0
v -80 -208 0
v -96 -224 0
v -112 -224 0
v -112 -208 0
v -96 -208 0
v -112 -224 0
v -128 -224 0
v -128 -208 0
v -112 -208 0
v -128 -224 0
v -144 -224 0
v -144 -208 0
v -128 -208 0
v -144 -224 0
v -160 -224 0
v -160 -208 0
v -144 -208 0
v -160 -224 0
v -176 -224 0
v -176 -208 0
v -160 -208 0
v -176 -224 0
v -192 -224 0
v -192 -208 0
v -176 -208 0
v -192 -224 0
v -208 -224 0
v -208 -208 0
v -192 -208 0
v -208 -224 0
v -224 -224 0
v -224 -208 0
v -208 -208 0
v -224 -224 0
v -240 -224 0
v -240 -208 0
v -224 -208 0
v -240 -224 0
v -256 -224 0
v -256 -208 0
v -240 -208 0
v -64 -240 0
v -80 -240 0
v -80 -224 0
v -64 -224 0
v -240 -240 0
v -256 -240 0
v -256 -224 0
v -240 -224 0

# Texture cooridinates (Count = 24)
vt 0 0.32
vt 0.04 0.32
vt 0.04 0.36
vt 0 0.36
vt 0.08 0.32
vt 0.08 0.36
vt 0.4 0.32
vt 0.44 0.32
vt 0.44 0.36
vt 0.4 0.36
vt 0 0.28
vt 0.04 0.28
vt 0.08 0.28
vt 0.4 0.28
vt 0.44 0.28
vt 0 0.24
vt 0.04 0.24
vt 0.08 0.24
vt 0.4 0.24
vt 0.44 0.24
vt 0.04 0.2
vt 0.08 0.2
vt 0.04 0.16
vt 0.08 0.16

# Normal
vn 0 0 -1

# Mesh description
g TopLeftRoom_mesh_0004

# Faces
f 1/1/1 2/2/1 3/3/1 4/4/1
f 5/1/1 6/2/1 7/3/1 8/4/1
f 9/1/1 10/2/1 11/3/1 12/4/1
f 13/1/1 14/2/1 15/3/1 16/4/1
f 17/1/1 18/2/1 19/3/1 20/4/1
f 21/2/1 22/5/1 23/6/1 24/3/1
f 25/7/1 26/8/1 27/9/1 28/10/1
f 29/7/1 30/8/1 31/9/1 32/10/1
f 33/1/1 34/2/1 35/3/1 36/4/1
f 37/1/1 38/2/1 39/3/1 40/4/1
f 41/1/1 42/2/1 43/3/1 44/4/1
f 45/1/1 46/2/1 47/3/1 48/4/1
f 49/1/1 50/2/1 51/3/1 52/4/1
f 53/2/1 54/5/1 55/6/1 56/3/1
f 57/11/1 58/12/1 59/2/1 60/1/1
f 61/11/1 62/12/1 63/2/1 64/1/1
f 65/11/1 66/12/1 67/2/1 68/1/1
f 69/11/1 70/12/1 71/2/1 72/1/1
f 73/11/1 74/12/1 75/2/1 76/1/1
f 77/12/1 78/13/1 79/5/1 80/2/1
f 81/14/1 82/15/1 83/8/1 84/7/1
f 85/14/1 86/15/1 87/8/1 88/7/1
f 89/11/1 90/12/1 91/2/1 92/1/1
f 93/11/1 94/12/1 95/2/1 96/1/1
f 97/11/1 98/12/1 99/2/1 100/1/1
f 101/11/1 102/12/1 103/2/1 104/1/1
f 105/11/1 106/12/1 107/2/1 108/1/1
f 109/12/1 110/13/1 111/5/1 112/2/1
f 113/16/1 114/17/1 115/12/1 116/11/1
f 117/16/1 118/17/1 119/12/1 120/11/1
f 121/16/1 122/17/1 123/12/1 124/11/1
f 125/16/1 126/17/1 127/12/1 128/11/1
f 129/16/1 130/17/1 131/12/1 132/11/1
f 133/17/1 134/18/1 135/13/1 136/12/1
f 137/19/1 138/20/1 139/15/1 140/14/1
f 141/19/1 142/20/1 143/15/1 144/14/1
f 145/16/1 146/17/1 147/12/1 148/11/1
f 149/16/1 150/17/1 151/12/1 152/11/1
f 153/16/1 154/17/1 155/12/1 156/11/1
f 157/16/1 158/17/1 159/12/1 160/11/1
f 161/16/1 162/17/1 163/12/1 164/11/1
f 165/17/1 166/18/1 167/13/1 168/12/1
f 169/21/1 170/22/1 171/18/1 172/17/1
f 173/23/1 174/24/1 175/22/1 176/21/1
f 177/21/1 178/22/1 179/18/1 180/17/1
f 181/23/1 182/24/1 183/22/1 184/21/1
f 185/1/1 186/2/1 187/3/1 188/4/1
f 189/1/1 190/2/1 191/3/1 192/4/1
f 193/1/1 194/2/1 195/3/1 196/4/1
f 197/1/1 198/2/1 199/3/1 200/4/1
f 201/1/1 202/2/1 203/3/1 204/4/1
f 205/1/1 206/2/1 207/3/1 208/4/1
f 209/1/1 210/2/1 211/3/1 212/4/1
f 213/1/1 214/2/1 215/3/1 216/4/1
f 217/1/1 218/2/1 219/3/1 220/4/1
f 221/2/1 222/5/1 223/6/1 224/3/1
f 225/11/1 226/12/1 227/2/1 228/1/1
f 229/11/1 230/12/1 231/2/1 232/1/1
f 233/11/1 234/12/1 235/2/1 236/1/1
f 237/11/1 238/12/1 239/2/1 240/1/1
f 241/11/1 242/12/1 243/2/1 244/1/1
f 245/11/1 246/12/1 247/2/1 248/1/1
f 249/11/1 250/12/1 251/2/1 252/1/1
f 253/11/1 254/12/1 255/2/1 256/1/1
f 257/11/1 258/12/1 259/2/1 260/1/1
f 261/12/1 262/13/1 263/5/1 264/2/1
f 265/21/1 266/22/1 267/18/1 268/17/1
f 269/16/1 270/17/1 271/12/1 272/11/1
f 273/16/1 274/17/1 275/12/1 276/11/1
f 277/16/1 278/17/1 279/12/1 280/11/1
f 281/16/1 282/17/1 283/12/1 284/11/1
f 285/16/1 286/17/1 287/12/1 288/11/1
f 289/16/1 290/17/1 291/12/1 292/11/1
f 293/16/1 294/17/1 295/12/1 296/11/1
f 297/16/1 298/17/1 299/12/1 300/11/1
f 301/16/1 302/17/1 303/12/1 304/11/1
f 305/17/1 306/18/1 307/13/1 308/12/1
f 309/21/1 310/22/1 311/18/1 312/17/1
f 313/23/1 314/24/1 315/22/1 316/21/1
f 317/23/1 318/24/1 319/22/1 320/21/1

