# Tiled2Unity generated file. Do not modify by hand.
# Wavefront file for 'LeftRightRoom_mesh_0002.obj'

# Vertices (Count = 20)
v -272 -96 0
v -288 -96 0
v -288 -80 0
v -272 -80 0
v -288 -112 0
v -304 -112 0
v -304 -96 0
v -288 -96 0
v -288 -128 0
v -304 -128 0
v -304 -112 0
v -288 -112 0
v -48 -192 0
v -64 -192 0
v -64 -176 0
v -48 -176 0
v -80 -272 0
v -96 -272 0
v -96 -256 0
v -80 -256 0

# Texture cooridinates (Count = 10)
vt 0.32 0.07999998
vt 0.36 0.07999998
vt 0.36 0.12
vt 0.32 0.12
vt 0.84 0.12
vt 0.88 0.12
vt 0.88 0.16
vt 0.84 0.16
vt 0.84 0.07999998
vt 0.88 0.07999998

# Normal
vn 0 0 -1

# Mesh description
g LeftRightRoom_mesh_0002

# Faces
f 1/1/1 2/2/1 3/3/1 4/4/1
f 5/5/1 6/6/1 7/7/1 8/8/1
f 9/9/1 10/10/1 11/6/1 12/5/1
f 13/1/1 14/2/1 15/3/1 16/4/1
f 17/1/1 18/2/1 19/3/1 20/4/1

