# Tiled2Unity generated file. Do not modify by hand.
# Wavefront file for 'StartRoom_mesh_0004.obj'

# Vertices (Count = 172)
v -112 -16 0
v -128 -16 0
v -128 0 0
v -112 0 0
v -192 -16 0
v -208 -16 0
v -208 0 0
v -192 0 0
v -112 -32 0
v -128 -32 0
v -128 -16 0
v -112 -16 0
v -192 -32 0
v -208 -32 0
v -208 -16 0
v -192 -16 0
v -112 -48 0
v -128 -48 0
v -128 -32 0
v -112 -32 0
v -192 -48 0
v -208 -48 0
v -208 -32 0
v -192 -32 0
v -240 -64 0
v -256 -64 0
v -256 -48 0
v -240 -48 0
v -256 -64 0
v -272 -64 0
v -272 -48 0
v -256 -48 0
v -272 -64 0
v -288 -64 0
v -288 -48 0
v -272 -48 0
v -288 -64 0
v -304 -64 0
v -304 -48 0
v -288 -48 0
v -48 -80 0
v -64 -80 0
v -64 -64 0
v -48 -64 0
v -240 -80 0
v -256 -80 0
v -256 -64 0
v -240 -64 0
v -256 -80 0
v -272 -80 0
v -272 -64 0
v -256 -64 0
v -272 -80 0
v -288 -80 0
v -288 -64 0
v -272 -64 0
v -288 -80 0
v -304 -80 0
v -304 -64 0
v -288 -64 0
v -48 -96 0
v -64 -96 0
v -64 -80 0
v -48 -80 0
v -240 -96 0
v -256 -96 0
v -256 -80 0
v -240 -80 0
v -256 -96 0
v -272 -96 0
v -272 -80 0
v -256 -80 0
v -272 -96 0
v -288 -96 0
v -288 -80 0
v -272 -80 0
v -288 -96 0
v -304 -96 0
v -304 -80 0
v -288 -80 0
v -16 -112 0
v -32 -112 0
v -32 -96 0
v -16 -96 0
v -288 -112 0
v -304 -112 0
v -304 -96 0
v -288 -96 0
v -16 -128 0
v -32 -128 0
v -32 -112 0
v -16 -112 0
v -224 -128 0
v -240 -128 0
v -240 -112 0
v -224 -112 0
v -288 -128 0
v -304 -128 0
v -304 -112 0
v -288 -112 0
v -16 -144 0
v -32 -144 0
v -32 -128 0
v -16 -128 0
v -288 -144 0
v -304 -144 0
v -304 -128 0
v -288 -128 0
v -16 -208 0
v -32 -208 0
v -32 -192 0
v -16 -192 0
v -288 -208 0
v -304 -208 0
v -304 -192 0
v -288 -192 0
v -16 -224 0
v -32 -224 0
v -32 -208 0
v -16 -208 0
v -224 -224 0
v -240 -224 0
v -240 -208 0
v -224 -208 0
v -288 -224 0
v -304 -224 0
v -304 -208 0
v -288 -208 0
v -16 -240 0
v -32 -240 0
v -32 -224 0
v -16 -224 0
v -224 -240 0
v -240 -240 0
v -240 -224 0
v -224 -224 0
v -288 -240 0
v -304 -240 0
v -304 -224 0
v -288 -224 0
v -48 -256 0
v -64 -256 0
v -64 -240 0
v -48 -240 0
v -48 -272 0
v -64 -272 0
v -64 -256 0
v -48 -256 0
v -112 -272 0
v -128 -272 0
v -128 -256 0
v -112 -256 0
v -192 -272 0
v -208 -272 0
v -208 -256 0
v -192 -256 0
v -112 -288 0
v -128 -288 0
v -128 -272 0
v -112 -272 0
v -192 -288 0
v -208 -288 0
v -208 -272 0
v -192 -272 0
v -112 -304 0
v -128 -304 0
v -128 -288 0
v -112 -288 0
v -192 -304 0
v -208 -304 0
v -208 -288 0
v -192 -288 0

# Texture cooridinates (Count = 36)
vt 0.48 0.32
vt 0.52 0.32
vt 0.52 0.36
vt 0.48 0.36
vt 0.48 0.28
vt 0.52 0.28
vt 0.48 0.24
vt 0.52 0.24
vt 0 0.32
vt 0.04 0.32
vt 0.04 0.36
vt 0 0.36
vt 0.08 0.32
vt 0.08 0.36
vt 0.12 0.32
vt 0.12 0.36
vt 0.16 0.32
vt 0.16 0.36
vt 0.08 0.2
vt 0.12 0.2
vt 0.12 0.24
vt 0.08 0.24
vt 0 0.28
vt 0.04 0.28
vt 0.08 0.28
vt 0.12 0.28
vt 0.16 0.28
vt 0.08 0.16
vt 0.12 0.16
vt 0 0.24
vt 0.04 0.24
vt 0.16 0.24
vt 0.24 0.12
vt 0.28 0.12
vt 0.28 0.16
vt 0.24 0.16

# Normal
vn 0 0 -1

# Mesh description
g StartRoom_mesh_0004

# Faces
f 1/1/1 2/2/1 3/3/1 4/4/1
f 5/1/1 6/2/1 7/3/1 8/4/1
f 9/5/1 10/6/1 11/2/1 12/1/1
f 13/5/1 14/6/1 15/2/1 16/1/1
f 17/7/1 18/8/1 19/6/1 20/5/1
f 21/7/1 22/8/1 23/6/1 24/5/1
f 25/9/1 26/10/1 27/11/1 28/12/1
f 29/10/1 30/13/1 31/14/1 32/11/1
f 33/13/1 34/15/1 35/16/1 36/14/1
f 37/15/1 38/17/1 39/18/1 40/16/1
f 41/19/1 42/20/1 43/21/1 44/22/1
f 45/23/1 46/24/1 47/10/1 48/9/1
f 49/24/1 50/25/1 51/13/1 52/10/1
f 53/25/1 54/26/1 55/15/1 56/13/1
f 57/26/1 58/27/1 59/17/1 60/15/1
f 61/28/1 62/29/1 63/20/1 64/19/1
f 65/30/1 66/31/1 67/24/1 68/23/1
f 69/31/1 70/22/1 71/25/1 72/24/1
f 73/22/1 74/21/1 75/26/1 76/25/1
f 77/21/1 78/32/1 79/27/1 80/26/1
f 81/1/1 82/2/1 83/3/1 84/4/1
f 85/1/1 86/2/1 87/3/1 88/4/1
f 89/5/1 90/6/1 91/2/1 92/1/1
f 93/33/1 94/34/1 95/35/1 96/36/1
f 97/5/1 98/6/1 99/2/1 100/1/1
f 101/7/1 102/8/1 103/6/1 104/5/1
f 105/7/1 106/8/1 107/6/1 108/5/1
f 109/1/1 110/2/1 111/3/1 112/4/1
f 113/1/1 114/2/1 115/3/1 116/4/1
f 117/5/1 118/6/1 119/2/1 120/1/1
f 121/19/1 122/20/1 123/21/1 124/22/1
f 125/5/1 126/6/1 127/2/1 128/1/1
f 129/7/1 130/8/1 131/6/1 132/5/1
f 133/28/1 134/29/1 135/20/1 136/19/1
f 137/7/1 138/8/1 139/6/1 140/5/1
f 141/19/1 142/20/1 143/21/1 144/22/1
f 145/28/1 146/29/1 147/20/1 148/19/1
f 149/1/1 150/2/1 151/3/1 152/4/1
f 153/1/1 154/2/1 155/3/1 156/4/1
f 157/5/1 158/6/1 159/2/1 160/1/1
f 161/5/1 162/6/1 163/2/1 164/1/1
f 165/7/1 166/8/1 167/6/1 168/5/1
f 169/7/1 170/8/1 171/6/1 172/5/1

