# Tiled2Unity generated file. Do not modify by hand.
# Wavefront file for 'TopBottomRoom_mesh_0002.obj'

# Vertices (Count = 328)
v 0 -16 0
v -16 -16 0
v -16 0 0
v 0 0 0
v -16 -16 0
v -32 -16 0
v -32 0 0
v -16 0 0
v -32 -16 0
v -48 -16 0
v -48 0 0
v -32 0 0
v -48 -16 0
v -64 -16 0
v -64 0 0
v -48 0 0
v -64 -16 0
v -80 -16 0
v -80 0 0
v -64 0 0
v -80 -16 0
v -96 -16 0
v -96 0 0
v -80 0 0
v -96 -16 0
v -112 -16 0
v -112 0 0
v -96 0 0
v -112 -16 0
v -128 -16 0
v -128 0 0
v -112 0 0
v -192 -16 0
v -208 -16 0
v -208 0 0
v -192 0 0
v -208 -16 0
v -224 -16 0
v -224 0 0
v -208 0 0
v -224 -16 0
v -240 -16 0
v -240 0 0
v -224 0 0
v -240 -16 0
v -256 -16 0
v -256 0 0
v -240 0 0
v -256 -16 0
v -272 -16 0
v -272 0 0
v -256 0 0
v -272 -16 0
v -288 -16 0
v -288 0 0
v -272 0 0
v -288 -16 0
v -304 -16 0
v -304 0 0
v -288 0 0
v -304 -16 0
v -320 -16 0
v -320 0 0
v -304 0 0
v 0 -32 0
v -16 -32 0
v -16 -16 0
v 0 -16 0
v -16 -32 0
v -32 -32 0
v -32 -16 0
v -16 -16 0
v -32 -32 0
v -48 -32 0
v -48 -16 0
v -32 -16 0
v -48 -32 0
v -64 -32 0
v -64 -16 0
v -48 -16 0
v -64 -32 0
v -80 -32 0
v -80 -16 0
v -64 -16 0
v -80 -32 0
v -96 -32 0
v -96 -16 0
v -80 -16 0
v -96 -32 0
v -112 -32 0
v -112 -16 0
v -96 -16 0
v -112 -32 0
v -128 -32 0
v -128 -16 0
v -112 -16 0
v -192 -32 0
v -208 -32 0
v -208 -16 0
v -192 -16 0
v -208 -32 0
v -224 -32 0
v -224 -16 0
v -208 -16 0
v -224 -32 0
v -240 -32 0
v -240 -16 0
v -224 -16 0
v -240 -32 0
v -256 -32 0
v -256 -16 0
v -240 -16 0
v -256 -32 0
v -272 -32 0
v -272 -16 0
v -256 -16 0
v -272 -32 0
v -288 -32 0
v -288 -16 0
v -272 -16 0
v -288 -32 0
v -304 -32 0
v -304 -16 0
v -288 -16 0
v -304 -32 0
v -320 -32 0
v -320 -16 0
v -304 -16 0
v 0 -48 0
v -16 -48 0
v -16 -32 0
v 0 -32 0
v -304 -48 0
v -320 -48 0
v -320 -32 0
v -304 -32 0
v 0 -64 0
v -16 -64 0
v -16 -48 0
v 0 -48 0
v -304 -64 0
v -320 -64 0
v -320 -48 0
v -304 -48 0
v 0 -80 0
v -16 -80 0
v -16 -64 0
v 0 -64 0
v -304 -80 0
v -320 -80 0
v -320 -64 0
v -304 -64 0
v 0 -96 0
v -16 -96 0
v -16 -80 0
v 0 -80 0
v -304 -96 0
v -320 -96 0
v -320 -80 0
v -304 -80 0
v 0 -112 0
v -16 -112 0
v -16 -96 0
v 0 -96 0
v -304 -112 0
v -320 -112 0
v -320 -96 0
v -304 -96 0
v 0 -128 0
v -16 -128 0
v -16 -112 0
v 0 -112 0
v -304 -128 0
v -320 -128 0
v -320 -112 0
v -304 -112 0
v 0 -144 0
v -16 -144 0
v -16 -128 0
v 0 -128 0
v -304 -144 0
v -320 -144 0
v -320 -128 0
v -304 -128 0
v 0 -160 0
v -16 -160 0
v -16 -144 0
v 0 -144 0
v -304 -160 0
v -320 -160 0
v -320 -144 0
v -304 -144 0
v 0 -176 0
v -16 -176 0
v -16 -160 0
v 0 -160 0
v -304 -176 0
v -320 -176 0
v -320 -160 0
v -304 -160 0
v 0 -192 0
v -16 -192 0
v -16 -176 0
v 0 -176 0
v -304 -192 0
v -320 -192 0
v -320 -176 0
v -304 -176 0
v 0 -208 0
v -16 -208 0
v -16 -192 0
v 0 -192 0
v -304 -208 0
v -320 -208 0
v -320 -192 0
v -304 -192 0
v 0 -224 0
v -16 -224 0
v -16 -208 0
v 0 -208 0
v -304 -224 0
v -320 -224 0
v -320 -208 0
v -304 -208 0
v 0 -240 0
v -16 -240 0
v -16 -224 0
v 0 -224 0
v -304 -240 0
v -320 -240 0
v -320 -224 0
v -304 -224 0
v 0 -256 0
v -16 -256 0
v -16 -240 0
v 0 -240 0
v -304 -256 0
v -320 -256 0
v -320 -240 0
v -304 -240 0
v 0 -272 0
v -16 -272 0
v -16 -256 0
v 0 -256 0
v -304 -272 0
v -320 -272 0
v -320 -256 0
v -304 -256 0
v 0 -288 0
v -16 -288 0
v -16 -272 0
v 0 -272 0
v -304 -288 0
v -320 -288 0
v -320 -272 0
v -304 -272 0
v 0 -304 0
v -16 -304 0
v -16 -288 0
v 0 -288 0
v -304 -304 0
v -320 -304 0
v -320 -288 0
v -304 -288 0
v 0 -320 0
v -16 -320 0
v -16 -304 0
v 0 -304 0
v -16 -320 0
v -32 -320 0
v -32 -304 0
v -16 -304 0
v -32 -320 0
v -48 -320 0
v -48 -304 0
v -32 -304 0
v -48 -320 0
v -64 -320 0
v -64 -304 0
v -48 -304 0
v -64 -320 0
v -80 -320 0
v -80 -304 0
v -64 -304 0
v -80 -320 0
v -96 -320 0
v -96 -304 0
v -80 -304 0
v -96 -320 0
v -112 -320 0
v -112 -304 0
v -96 -304 0
v -112 -320 0
v -128 -320 0
v -128 -304 0
v -112 -304 0
v -192 -320 0
v -208 -320 0
v -208 -304 0
v -192 -304 0
v -208 -320 0
v -224 -320 0
v -224 -304 0
v -208 -304 0
v -224 -320 0
v -240 -320 0
v -240 -304 0
v -224 -304 0
v -240 -320 0
v -256 -320 0
v -256 -304 0
v -240 -304 0
v -256 -320 0
v -272 -320 0
v -272 -304 0
v -256 -304 0
v -272 -320 0
v -288 -320 0
v -288 -304 0
v -272 -304 0
v -288 -320 0
v -304 -320 0
v -304 -304 0
v -288 -304 0
v -304 -320 0
v -320 -320 0
v -320 -304 0
v -304 -304 0

# Texture cooridinates (Count = 26)
vt 0.12 0.88
vt 0.16 0.88
vt 0.16 0.92
vt 0.12 0.92
vt 0.08 0.8
vt 0.12 0.8
vt 0.12 0.84
vt 0.08 0.84
vt 0.16 0.8
vt 0.16 0.84
vt 0.04 0.8
vt 0.04 0.84
vt 0.04 0.88
vt 0.08 0.88
vt 0.08 0.92
vt 0.04 0.92
vt 0.04 0.76
vt 0.08 0.76
vt 0.16 0.96
vt 0.12 0.96
vt 0.08 0.96
vt 0.12 1
vt 0.08 1
vt 0.16 1
vt 0.04 0.96
vt 0.04 1

# Normal
vn 0 0 -1

# Mesh description
g TopBottomRoom_mesh_0002

# Faces
f 1/1/1 2/2/1 3/3/1 4/4/1
f 5/5/1 6/6/1 7/7/1 8/8/1
f 9/5/1 10/6/1 11/7/1 12/8/1
f 13/5/1 14/6/1 15/7/1 16/8/1
f 17/5/1 18/6/1 19/7/1 20/8/1
f 21/5/1 22/6/1 23/7/1 24/8/1
f 25/5/1 26/6/1 27/7/1 28/8/1
f 29/6/1 30/9/1 31/10/1 32/7/1
f 33/11/1 34/5/1 35/8/1 36/12/1
f 37/5/1 38/6/1 39/7/1 40/8/1
f 41/5/1 42/6/1 43/7/1 44/8/1
f 45/5/1 46/6/1 47/7/1 48/8/1
f 49/5/1 50/6/1 51/7/1 52/8/1
f 53/5/1 54/6/1 55/7/1 56/8/1
f 57/5/1 58/6/1 59/7/1 60/8/1
f 61/13/1 62/14/1 63/15/1 64/16/1
f 65/7/1 66/10/1 67/2/1 68/1/1
f 69/17/1 70/18/1 71/5/1 72/11/1
f 73/17/1 74/18/1 75/5/1 76/11/1
f 77/17/1 78/18/1 79/5/1 80/11/1
f 81/17/1 82/18/1 83/5/1 84/11/1
f 85/17/1 86/18/1 87/5/1 88/11/1
f 89/17/1 90/18/1 91/5/1 92/11/1
f 93/17/1 94/18/1 95/5/1 96/11/1
f 97/17/1 98/18/1 99/5/1 100/11/1
f 101/17/1 102/18/1 103/5/1 104/11/1
f 105/17/1 106/18/1 107/5/1 108/11/1
f 109/17/1 110/18/1 111/5/1 112/11/1
f 113/17/1 114/18/1 115/5/1 116/11/1
f 117/17/1 118/18/1 119/5/1 120/11/1
f 121/17/1 122/18/1 123/5/1 124/11/1
f 125/12/1 126/8/1 127/14/1 128/13/1
f 129/7/1 130/10/1 131/2/1 132/1/1
f 133/12/1 134/8/1 135/14/1 136/13/1
f 137/7/1 138/10/1 139/2/1 140/1/1
f 141/12/1 142/8/1 143/14/1 144/13/1
f 145/7/1 146/10/1 147/2/1 148/1/1
f 149/12/1 150/8/1 151/14/1 152/13/1
f 153/7/1 154/10/1 155/2/1 156/1/1
f 157/12/1 158/8/1 159/14/1 160/13/1
f 161/7/1 162/10/1 163/2/1 164/1/1
f 165/12/1 166/8/1 167/14/1 168/13/1
f 169/7/1 170/10/1 171/2/1 172/1/1
f 173/12/1 174/8/1 175/14/1 176/13/1
f 177/7/1 178/10/1 179/2/1 180/1/1
f 181/12/1 182/8/1 183/14/1 184/13/1
f 185/7/1 186/10/1 187/2/1 188/1/1
f 189/12/1 190/8/1 191/14/1 192/13/1
f 193/7/1 194/10/1 195/2/1 196/1/1
f 197/12/1 198/8/1 199/14/1 200/13/1
f 201/7/1 202/10/1 203/2/1 204/1/1
f 205/12/1 206/8/1 207/14/1 208/13/1
f 209/7/1 210/10/1 211/2/1 212/1/1
f 213/12/1 214/8/1 215/14/1 216/13/1
f 217/7/1 218/10/1 219/2/1 220/1/1
f 221/12/1 222/8/1 223/14/1 224/13/1
f 225/7/1 226/10/1 227/2/1 228/1/1
f 229/12/1 230/8/1 231/14/1 232/13/1
f 233/7/1 234/10/1 235/2/1 236/1/1
f 237/12/1 238/8/1 239/14/1 240/13/1
f 241/7/1 242/10/1 243/2/1 244/1/1
f 245/12/1 246/8/1 247/14/1 248/13/1
f 249/7/1 250/10/1 251/2/1 252/1/1
f 253/12/1 254/8/1 255/14/1 256/13/1
f 257/7/1 258/10/1 259/2/1 260/1/1
f 261/12/1 262/8/1 263/14/1 264/13/1
f 265/4/1 266/3/1 267/19/1 268/20/1
f 269/21/1 270/20/1 271/22/1 272/23/1
f 273/21/1 274/20/1 275/22/1 276/23/1
f 277/21/1 278/20/1 279/22/1 280/23/1
f 281/21/1 282/20/1 283/22/1 284/23/1
f 285/21/1 286/20/1 287/22/1 288/23/1
f 289/21/1 290/20/1 291/22/1 292/23/1
f 293/20/1 294/19/1 295/24/1 296/22/1
f 297/25/1 298/21/1 299/23/1 300/26/1
f 301/21/1 302/20/1 303/22/1 304/23/1
f 305/21/1 306/20/1 307/22/1 308/23/1
f 309/21/1 310/20/1 311/22/1 312/23/1
f 313/21/1 314/20/1 315/22/1 316/23/1
f 317/21/1 318/20/1 319/22/1 320/23/1
f 321/21/1 322/20/1 323/22/1 324/23/1
f 325/16/1 326/15/1 327/21/1 328/25/1

