# Tiled2Unity generated file. Do not modify by hand.
# Wavefront file for 'TopBottomRoom_mesh_0003.obj'

# Vertices (Count = 72)
v -16 -32 0
v -32 -32 0
v -32 -16 0
v -16 -16 0
v -112 -32 0
v -128 -32 0
v -128 -16 0
v -112 -16 0
v -192 -32 0
v -208 -32 0
v -208 -16 0
v -192 -16 0
v -288 -32 0
v -304 -32 0
v -304 -16 0
v -288 -16 0
v -16 -48 0
v -32 -48 0
v -32 -32 0
v -16 -32 0
v -112 -48 0
v -128 -48 0
v -128 -32 0
v -112 -32 0
v -192 -48 0
v -208 -48 0
v -208 -32 0
v -192 -32 0
v -288 -48 0
v -304 -48 0
v -304 -32 0
v -288 -32 0
v -48 -96 0
v -64 -96 0
v -64 -80 0
v -48 -80 0
v -48 -112 0
v -64 -112 0
v -64 -96 0
v -48 -96 0
v -144 -192 0
v -160 -192 0
v -160 -176 0
v -144 -176 0
v -144 -208 0
v -160 -208 0
v -160 -192 0
v -144 -192 0
v -240 -256 0
v -256 -256 0
v -256 -240 0
v -240 -240 0
v -240 -272 0
v -256 -272 0
v -256 -256 0
v -240 -256 0
v -16 -288 0
v -32 -288 0
v -32 -272 0
v -16 -272 0
v -288 -288 0
v -304 -288 0
v -304 -272 0
v -288 -272 0
v -16 -304 0
v -32 -304 0
v -32 -288 0
v -16 -288 0
v -288 -304 0
v -304 -304 0
v -304 -288 0
v -288 -288 0

# Texture cooridinates (Count = 18)
vt 0.72 0.2
vt 0.76 0.2
vt 0.76 0.24
vt 0.72 0.24
vt 0.16 0.2
vt 0.2 0.2
vt 0.2 0.24
vt 0.16 0.24
vt 0.72 0.16
vt 0.76 0.16
vt 0.16 0.16
vt 0.2 0.16
vt 0.08 0.2
vt 0.12 0.2
vt 0.12 0.24
vt 0.08 0.24
vt 0.08 0.16
vt 0.12 0.16

# Normal
vn 0 0 -1

# Mesh description
g TopBottomRoom_mesh_0003

# Faces
f 1/1/1 2/2/1 3/3/1 4/4/1
f 5/5/1 6/6/1 7/7/1 8/8/1
f 9/5/1 10/6/1 11/7/1 12/8/1
f 13/1/1 14/2/1 15/3/1 16/4/1
f 17/9/1 18/10/1 19/2/1 20/1/1
f 21/11/1 22/12/1 23/6/1 24/5/1
f 25/11/1 26/12/1 27/6/1 28/5/1
f 29/9/1 30/10/1 31/2/1 32/1/1
f 33/13/1 34/14/1 35/15/1 36/16/1
f 37/17/1 38/18/1 39/14/1 40/13/1
f 41/13/1 42/14/1 43/15/1 44/16/1
f 45/17/1 46/18/1 47/14/1 48/13/1
f 49/13/1 50/14/1 51/15/1 52/16/1
f 53/17/1 54/18/1 55/14/1 56/13/1
f 57/1/1 58/2/1 59/3/1 60/4/1
f 61/1/1 62/2/1 63/3/1 64/4/1
f 65/9/1 66/10/1 67/2/1 68/1/1
f 69/9/1 70/10/1 71/2/1 72/1/1

