# Tiled2Unity generated file. Do not modify by hand.
# Wavefront file for 'Test_mesh_0002.obj'

# Vertices (Count = 784)
v -16 -16 0
v -32 -16 0
v -32 0 0
v -16 0 0
v -32 -16 0
v -48 -16 0
v -48 0 0
v -32 0 0
v -48 -16 0
v -64 -16 0
v -64 0 0
v -48 0 0
v -64 -16 0
v -80 -16 0
v -80 0 0
v -64 0 0
v -80 -16 0
v -96 -16 0
v -96 0 0
v -80 0 0
v -96 -16 0
v -112 -16 0
v -112 0 0
v -96 0 0
v -112 -16 0
v -128 -16 0
v -128 0 0
v -112 0 0
v -128 -16 0
v -144 -16 0
v -144 0 0
v -128 0 0
v -208 -16 0
v -224 -16 0
v -224 0 0
v -208 0 0
v -224 -16 0
v -240 -16 0
v -240 0 0
v -224 0 0
v -240 -16 0
v -256 -16 0
v -256 0 0
v -240 0 0
v -256 -16 0
v -272 -16 0
v -272 0 0
v -256 0 0
v -336 -16 0
v -352 -16 0
v -352 0 0
v -336 0 0
v -352 -16 0
v -368 -16 0
v -368 0 0
v -352 0 0
v -368 -16 0
v -384 -16 0
v -384 0 0
v -368 0 0
v -384 -16 0
v -400 -16 0
v -400 0 0
v -384 0 0
v -400 -16 0
v -416 -16 0
v -416 0 0
v -400 0 0
v -416 -16 0
v -432 -16 0
v -432 0 0
v -416 0 0
v -432 -16 0
v -448 -16 0
v -448 0 0
v -432 0 0
v -448 -16 0
v -464 -16 0
v -464 0 0
v -448 0 0
v -16 -32 0
v -32 -32 0
v -32 -16 0
v -16 -16 0
v -32 -32 0
v -48 -32 0
v -48 -16 0
v -32 -16 0
v -48 -32 0
v -64 -32 0
v -64 -16 0
v -48 -16 0
v -64 -32 0
v -80 -32 0
v -80 -16 0
v -64 -16 0
v -80 -32 0
v -96 -32 0
v -96 -16 0
v -80 -16 0
v -96 -32 0
v -112 -32 0
v -112 -16 0
v -96 -16 0
v -112 -32 0
v -128 -32 0
v -128 -16 0
v -112 -16 0
v -128 -32 0
v -144 -32 0
v -144 -16 0
v -128 -16 0
v -336 -32 0
v -352 -32 0
v -352 -16 0
v -336 -16 0
v -352 -32 0
v -368 -32 0
v -368 -16 0
v -352 -16 0
v -368 -32 0
v -384 -32 0
v -384 -16 0
v -368 -16 0
v -384 -32 0
v -400 -32 0
v -400 -16 0
v -384 -16 0
v -400 -32 0
v -416 -32 0
v -416 -16 0
v -400 -16 0
v -416 -32 0
v -432 -32 0
v -432 -16 0
v -416 -16 0
v -432 -32 0
v -448 -32 0
v -448 -16 0
v -432 -16 0
v -448 -32 0
v -464 -32 0
v -464 -16 0
v -448 -16 0
v -16 -48 0
v -32 -48 0
v -32 -32 0
v -16 -32 0
v -32 -48 0
v -48 -48 0
v -48 -32 0
v -32 -32 0
v -48 -48 0
v -64 -48 0
v -64 -32 0
v -48 -32 0
v -64 -48 0
v -80 -48 0
v -80 -32 0
v -64 -32 0
v -80 -48 0
v -96 -48 0
v -96 -32 0
v -80 -32 0
v -96 -48 0
v -112 -48 0
v -112 -32 0
v -96 -32 0
v -112 -48 0
v -128 -48 0
v -128 -32 0
v -112 -32 0
v -128 -48 0
v -144 -48 0
v -144 -32 0
v -128 -32 0
v -336 -48 0
v -352 -48 0
v -352 -32 0
v -336 -32 0
v -352 -48 0
v -368 -48 0
v -368 -32 0
v -352 -32 0
v -368 -48 0
v -384 -48 0
v -384 -32 0
v -368 -32 0
v -384 -48 0
v -400 -48 0
v -400 -32 0
v -384 -32 0
v -400 -48 0
v -416 -48 0
v -416 -32 0
v -400 -32 0
v -416 -48 0
v -432 -48 0
v -432 -32 0
v -416 -32 0
v -432 -48 0
v -448 -48 0
v -448 -32 0
v -432 -32 0
v -448 -48 0
v -464 -48 0
v -464 -32 0
v -448 -32 0
v -48 -80 0
v -64 -80 0
v -64 -64 0
v -48 -64 0
v -416 -80 0
v -432 -80 0
v -432 -64 0
v -416 -64 0
v -48 -96 0
v -64 -96 0
v -64 -80 0
v -48 -80 0
v -256 -96 0
v -272 -96 0
v -272 -80 0
v -256 -80 0
v -416 -96 0
v -432 -96 0
v -432 -80 0
v -416 -80 0
v -48 -112 0
v -64 -112 0
v -64 -96 0
v -48 -96 0
v -256 -112 0
v -272 -112 0
v -272 -96 0
v -256 -96 0
v -416 -112 0
v -432 -112 0
v -432 -96 0
v -416 -96 0
v -128 -128 0
v -144 -128 0
v -144 -112 0
v -128 -112 0
v -128 -144 0
v -144 -144 0
v -144 -128 0
v -128 -128 0
v -432 -144 0
v -448 -144 0
v -448 -128 0
v -432 -128 0
v -176 -160 0
v -192 -160 0
v -192 -144 0
v -176 -144 0
v -192 -160 0
v -208 -160 0
v -208 -144 0
v -192 -144 0
v -208 -160 0
v -224 -160 0
v -224 -144 0
v -208 -144 0
v -224 -160 0
v -240 -160 0
v -240 -144 0
v -224 -144 0
v -240 -160 0
v -256 -160 0
v -256 -144 0
v -240 -144 0
v -256 -160 0
v -272 -160 0
v -272 -144 0
v -256 -144 0
v -272 -160 0
v -288 -160 0
v -288 -144 0
v -272 -144 0
v -288 -160 0
v -304 -160 0
v -304 -144 0
v -288 -144 0
v -304 -160 0
v -320 -160 0
v -320 -144 0
v -304 -144 0
v -320 -160 0
v -336 -160 0
v -336 -144 0
v -320 -144 0
v -432 -160 0
v -448 -160 0
v -448 -144 0
v -432 -144 0
v -176 -176 0
v -192 -176 0
v -192 -160 0
v -176 -160 0
v -192 -176 0
v -208 -176 0
v -208 -160 0
v -192 -160 0
v -208 -176 0
v -224 -176 0
v -224 -160 0
v -208 -160 0
v -224 -176 0
v -240 -176 0
v -240 -160 0
v -224 -160 0
v -240 -176 0
v -256 -176 0
v -256 -160 0
v -240 -160 0
v -256 -176 0
v -272 -176 0
v -272 -160 0
v -256 -160 0
v -272 -176 0
v -288 -176 0
v -288 -160 0
v -272 -160 0
v -288 -176 0
v -304 -176 0
v -304 -160 0
v -288 -160 0
v -304 -176 0
v -320 -176 0
v -320 -160 0
v -304 -160 0
v -320 -176 0
v -336 -176 0
v -336 -160 0
v -320 -160 0
v -416 -176 0
v -432 -176 0
v -432 -160 0
v -416 -160 0
v -432 -176 0
v -448 -176 0
v -448 -160 0
v -432 -160 0
v -96 -192 0
v -112 -192 0
v -112 -176 0
v -96 -176 0
v -176 -192 0
v -192 -192 0
v -192 -176 0
v -176 -176 0
v -192 -192 0
v -208 -192 0
v -208 -176 0
v -192 -176 0
v -208 -192 0
v -224 -192 0
v -224 -176 0
v -208 -176 0
v -224 -192 0
v -240 -192 0
v -240 -176 0
v -224 -176 0
v -240 -192 0
v -256 -192 0
v -256 -176 0
v -240 -176 0
v -256 -192 0
v -272 -192 0
v -272 -176 0
v -256 -176 0
v -272 -192 0
v -288 -192 0
v -288 -176 0
v -272 -176 0
v -288 -192 0
v -304 -192 0
v -304 -176 0
v -288 -176 0
v -304 -192 0
v -320 -192 0
v -320 -176 0
v -304 -176 0
v -320 -192 0
v -336 -192 0
v -336 -176 0
v -320 -176 0
v -416 -192 0
v -432 -192 0
v -432 -176 0
v -416 -176 0
v -432 -192 0
v -448 -192 0
v -448 -176 0
v -432 -176 0
v -96 -208 0
v -112 -208 0
v -112 -192 0
v -96 -192 0
v -176 -208 0
v -192 -208 0
v -192 -192 0
v -176 -192 0
v -192 -208 0
v -208 -208 0
v -208 -192 0
v -192 -192 0
v -208 -208 0
v -224 -208 0
v -224 -192 0
v -208 -192 0
v -224 -208 0
v -240 -208 0
v -240 -192 0
v -224 -192 0
v -240 -208 0
v -256 -208 0
v -256 -192 0
v -240 -192 0
v -256 -208 0
v -272 -208 0
v -272 -192 0
v -256 -192 0
v -272 -208 0
v -288 -208 0
v -288 -192 0
v -272 -192 0
v -288 -208 0
v -304 -208 0
v -304 -192 0
v -288 -192 0
v -304 -208 0
v -320 -208 0
v -320 -192 0
v -304 -192 0
v -320 -208 0
v -336 -208 0
v -336 -192 0
v -320 -192 0
v 0 -224 0
v -16 -224 0
v -16 -208 0
v 0 -208 0
v -48 -224 0
v -64 -224 0
v -64 -208 0
v -48 -208 0
v -176 -224 0
v -192 -224 0
v -192 -208 0
v -176 -208 0
v -192 -224 0
v -208 -224 0
v -208 -208 0
v -192 -208 0
v -208 -224 0
v -224 -224 0
v -224 -208 0
v -208 -208 0
v -224 -224 0
v -240 -224 0
v -240 -208 0
v -224 -208 0
v -240 -224 0
v -256 -224 0
v -256 -208 0
v -240 -208 0
v -256 -224 0
v -272 -224 0
v -272 -208 0
v -256 -208 0
v -272 -224 0
v -288 -224 0
v -288 -208 0
v -272 -208 0
v -288 -224 0
v -304 -224 0
v -304 -208 0
v -288 -208 0
v -304 -224 0
v -320 -224 0
v -320 -208 0
v -304 -208 0
v -320 -224 0
v -336 -224 0
v -336 -208 0
v -320 -208 0
v -400 -224 0
v -416 -224 0
v -416 -208 0
v -400 -208 0
v -464 -224 0
v -480 -224 0
v -480 -208 0
v -464 -208 0
v 0 -240 0
v -16 -240 0
v -16 -224 0
v 0 -224 0
v -48 -240 0
v -64 -240 0
v -64 -224 0
v -48 -224 0
v -176 -240 0
v -192 -240 0
v -192 -224 0
v -176 -224 0
v -192 -240 0
v -208 -240 0
v -208 -224 0
v -192 -224 0
v -208 -240 0
v -224 -240 0
v -224 -224 0
v -208 -224 0
v -224 -240 0
v -240 -240 0
v -240 -224 0
v -224 -224 0
v -240 -240 0
v -256 -240 0
v -256 -224 0
v -240 -224 0
v -256 -240 0
v -272 -240 0
v -272 -224 0
v -256 -224 0
v -272 -240 0
v -288 -240 0
v -288 -224 0
v -272 -224 0
v -288 -240 0
v -304 -240 0
v -304 -224 0
v -288 -224 0
v -304 -240 0
v -320 -240 0
v -320 -224 0
v -304 -224 0
v -320 -240 0
v -336 -240 0
v -336 -224 0
v -320 -224 0
v -400 -240 0
v -416 -240 0
v -416 -224 0
v -400 -224 0
v -432 -240 0
v -448 -240 0
v -448 -224 0
v -432 -224 0
v -464 -240 0
v -480 -240 0
v -480 -224 0
v -464 -224 0
v 0 -256 0
v -16 -256 0
v -16 -240 0
v 0 -240 0
v -176 -256 0
v -192 -256 0
v -192 -240 0
v -176 -240 0
v -192 -256 0
v -208 -256 0
v -208 -240 0
v -192 -240 0
v -208 -256 0
v -224 -256 0
v -224 -240 0
v -208 -240 0
v -224 -256 0
v -240 -256 0
v -240 -240 0
v -224 -240 0
v -240 -256 0
v -256 -256 0
v -256 -240 0
v -240 -240 0
v -256 -256 0
v -272 -256 0
v -272 -240 0
v -256 -240 0
v -272 -256 0
v -288 -256 0
v -288 -240 0
v -272 -240 0
v -288 -256 0
v -304 -256 0
v -304 -240 0
v -288 -240 0
v -304 -256 0
v -320 -256 0
v -320 -240 0
v -304 -240 0
v -320 -256 0
v -336 -256 0
v -336 -240 0
v -320 -240 0
v -432 -256 0
v -448 -256 0
v -448 -240 0
v -432 -240 0
v -464 -256 0
v -480 -256 0
v -480 -240 0
v -464 -240 0
v 0 -272 0
v -16 -272 0
v -16 -256 0
v 0 -256 0
v -176 -272 0
v -192 -272 0
v -192 -256 0
v -176 -256 0
v -192 -272 0
v -208 -272 0
v -208 -256 0
v -192 -256 0
v -208 -272 0
v -224 -272 0
v -224 -256 0
v -208 -256 0
v -224 -272 0
v -240 -272 0
v -240 -256 0
v -224 -256 0
v -240 -272 0
v -256 -272 0
v -256 -256 0
v -240 -256 0
v -256 -272 0
v -272 -272 0
v -272 -256 0
v -256 -256 0
v -272 -272 0
v -288 -272 0
v -288 -256 0
v -272 -256 0
v -288 -272 0
v -304 -272 0
v -304 -256 0
v -288 -256 0
v -304 -272 0
v -320 -272 0
v -320 -256 0
v -304 -256 0
v -320 -272 0
v -336 -272 0
v -336 -256 0
v -320 -256 0
v -464 -272 0
v -480 -272 0
v -480 -256 0
v -464 -256 0
v -176 -288 0
v -192 -288 0
v -192 -272 0
v -176 -272 0
v -192 -288 0
v -208 -288 0
v -208 -272 0
v -192 -272 0
v -208 -288 0
v -224 -288 0
v -224 -272 0
v -208 -272 0
v -224 -288 0
v -240 -288 0
v -240 -272 0
v -224 -272 0
v -240 -288 0
v -256 -288 0
v -256 -272 0
v -240 -272 0
v -256 -288 0
v -272 -288 0
v -272 -272 0
v -256 -272 0
v -272 -288 0
v -288 -288 0
v -288 -272 0
v -272 -272 0
v -288 -288 0
v -304 -288 0
v -304 -272 0
v -288 -272 0
v -304 -288 0
v -320 -288 0
v -320 -272 0
v -304 -272 0
v -320 -288 0
v -336 -288 0
v -336 -272 0
v -320 -272 0
v -48 -304 0
v -64 -304 0
v -64 -288 0
v -48 -288 0
v -144 -304 0
v -160 -304 0
v -160 -288 0
v -144 -288 0
v -416 -304 0
v -432 -304 0
v -432 -288 0
v -416 -288 0
v -48 -320 0
v -64 -320 0
v -64 -304 0
v -48 -304 0
v -144 -320 0
v -160 -320 0
v -160 -304 0
v -144 -304 0
v -416 -320 0
v -432 -320 0
v -432 -304 0
v -416 -304 0
v -48 -336 0
v -64 -336 0
v -64 -320 0
v -48 -320 0
v -416 -336 0
v -432 -336 0
v -432 -320 0
v -416 -320 0
v -192 -368 0
v -208 -368 0
v -208 -352 0
v -192 -352 0
v -256 -368 0
v -272 -368 0
v -272 -352 0
v -256 -352 0
v -368 -368 0
v -384 -368 0
v -384 -352 0
v -368 -352 0
v -192 -384 0
v -208 -384 0
v -208 -368 0
v -192 -368 0
v -256 -384 0
v -272 -384 0
v -272 -368 0
v -256 -368 0
v -368 -384 0
v -384 -384 0
v -384 -368 0
v -368 -368 0
v -128 -416 0
v -144 -416 0
v -144 -400 0
v -128 -400 0
v -416 -416 0
v -432 -416 0
v -432 -400 0
v -416 -400 0
v -128 -432 0
v -144 -432 0
v -144 -416 0
v -128 -416 0
v -416 -432 0
v -432 -432 0
v -432 -416 0
v -416 -416 0
v -208 -480 0
v -224 -480 0
v -224 -464 0
v -208 -464 0
v -224 -480 0
v -240 -480 0
v -240 -464 0
v -224 -464 0
v -240 -480 0
v -256 -480 0
v -256 -464 0
v -240 -464 0
v -256 -480 0
v -272 -480 0
v -272 -464 0
v -256 -464 0

# Texture cooridinates (Count = 69)
vt 0 0.32
vt 0.04 0.32
vt 0.04 0.36
vt 0 0.36
vt 0.08 0.32
vt 0.08 0.36
vt 0.12 0.32
vt 0.12 0.36
vt 0.16 0.32
vt 0.16 0.36
vt 0.16 0.64
vt 0.2 0.64
vt 0.2 0.68
vt 0.16 0.68
vt 0 0.28
vt 0.04 0.28
vt 0.08 0.28
vt 0.12 0.28
vt 0.16 0.28
vt 0 0.24
vt 0.04 0.24
vt 0.08 0.24
vt 0.12 0.24
vt 0.16 0.24
vt 0.48 0.32
vt 0.52 0.32
vt 0.52 0.36
vt 0.48 0.36
vt 0.48 0.28
vt 0.52 0.28
vt 0.08 0.2
vt 0.12 0.2
vt 0.48 0.24
vt 0.52 0.24
vt 0.08 0.16
vt 0.12 0.16
vt 0.04 0.2
vt 0 0.64
vt 0.04 0.64
vt 0.04 0.68
vt 0 0.68
vt 0.08 0.64
vt 0.08 0.68
vt 0.12 0.64
vt 0.12 0.68
vt 0.04 0.16
vt 0 0.6
vt 0.04 0.6
vt 0.08 0.6
vt 0.12 0.6
vt 0.56 0.2
vt 0.6 0.2
vt 0.6 0.24
vt 0.56 0.24
vt 0.64 0.2
vt 0.64 0.24
vt 0.88 0.2
vt 0.92 0.2
vt 0.92 0.24
vt 0.88 0.24
vt 0.56 0.16
vt 0.6 0.16
vt 0.64 0.16
vt 0.88 0.16
vt 0.92 0.16
vt 0 0.56
vt 0.04 0.56
vt 0.08 0.56
vt 0.12 0.56

# Normal
vn 0 0 -1

# Mesh description
g Test_mesh_0002

# Faces
f 1/1/1 2/2/1 3/3/1 4/4/1
f 5/2/1 6/5/1 7/6/1 8/3/1
f 9/5/1 10/7/1 11/8/1 12/6/1
f 13/7/1 14/9/1 15/10/1 16/8/1
f 17/1/1 18/2/1 19/3/1 20/4/1
f 21/2/1 22/5/1 23/6/1 24/3/1
f 25/5/1 26/7/1 27/8/1 28/6/1
f 29/7/1 30/9/1 31/10/1 32/8/1
f 33/11/1 34/12/1 35/13/1 36/14/1
f 37/11/1 38/12/1 39/13/1 40/14/1
f 41/11/1 42/12/1 43/13/1 44/14/1
f 45/11/1 46/12/1 47/13/1 48/14/1
f 49/1/1 50/2/1 51/3/1 52/4/1
f 53/2/1 54/5/1 55/6/1 56/3/1
f 57/5/1 58/7/1 59/8/1 60/6/1
f 61/7/1 62/9/1 63/10/1 64/8/1
f 65/1/1 66/2/1 67/3/1 68/4/1
f 69/2/1 70/5/1 71/6/1 72/3/1
f 73/5/1 74/7/1 75/8/1 76/6/1
f 77/7/1 78/9/1 79/10/1 80/8/1
f 81/15/1 82/16/1 83/2/1 84/1/1
f 85/16/1 86/17/1 87/5/1 88/2/1
f 89/17/1 90/18/1 91/7/1 92/5/1
f 93/18/1 94/19/1 95/9/1 96/7/1
f 97/15/1 98/16/1 99/2/1 100/1/1
f 101/16/1 102/17/1 103/5/1 104/2/1
f 105/17/1 106/18/1 107/7/1 108/5/1
f 109/18/1 110/19/1 111/9/1 112/7/1
f 113/15/1 114/16/1 115/2/1 116/1/1
f 117/16/1 118/17/1 119/5/1 120/2/1
f 121/17/1 122/18/1 123/7/1 124/5/1
f 125/18/1 126/19/1 127/9/1 128/7/1
f 129/15/1 130/16/1 131/2/1 132/1/1
f 133/16/1 134/17/1 135/5/1 136/2/1
f 137/17/1 138/18/1 139/7/1 140/5/1
f 141/18/1 142/19/1 143/9/1 144/7/1
f 145/20/1 146/21/1 147/16/1 148/15/1
f 149/21/1 150/22/1 151/17/1 152/16/1
f 153/22/1 154/23/1 155/18/1 156/17/1
f 157/23/1 158/24/1 159/19/1 160/18/1
f 161/20/1 162/21/1 163/16/1 164/15/1
f 165/21/1 166/22/1 167/17/1 168/16/1
f 169/22/1 170/23/1 171/18/1 172/17/1
f 173/23/1 174/24/1 175/19/1 176/18/1
f 177/20/1 178/21/1 179/16/1 180/15/1
f 181/21/1 182/22/1 183/17/1 184/16/1
f 185/22/1 186/23/1 187/18/1 188/17/1
f 189/23/1 190/24/1 191/19/1 192/18/1
f 193/20/1 194/21/1 195/16/1 196/15/1
f 197/21/1 198/22/1 199/17/1 200/16/1
f 201/22/1 202/23/1 203/18/1 204/17/1
f 205/23/1 206/24/1 207/19/1 208/18/1
f 209/25/1 210/26/1 211/27/1 212/28/1
f 213/25/1 214/26/1 215/27/1 216/28/1
f 217/29/1 218/30/1 219/26/1 220/25/1
f 221/31/1 222/32/1 223/23/1 224/22/1
f 225/29/1 226/30/1 227/26/1 228/25/1
f 229/33/1 230/34/1 231/30/1 232/29/1
f 233/35/1 234/36/1 235/32/1 236/31/1
f 237/33/1 238/34/1 239/30/1 240/29/1
f 241/31/1 242/32/1 243/23/1 244/22/1
f 245/35/1 246/36/1 247/32/1 248/31/1
f 249/37/1 250/31/1 251/22/1 252/21/1
f 253/38/1 254/39/1 255/40/1 256/41/1
f 257/39/1 258/42/1 259/43/1 260/40/1
f 261/39/1 262/42/1 263/43/1 264/40/1
f 265/39/1 266/42/1 267/43/1 268/40/1
f 269/39/1 270/42/1 271/43/1 272/40/1
f 273/39/1 274/42/1 275/43/1 276/40/1
f 277/39/1 278/42/1 279/43/1 280/40/1
f 281/39/1 282/42/1 283/43/1 284/40/1
f 285/39/1 286/42/1 287/43/1 288/40/1
f 289/42/1 290/44/1 291/45/1 292/43/1
f 293/46/1 294/35/1 295/31/1 296/37/1
f 297/47/1 298/48/1 299/39/1 300/38/1
f 301/48/1 302/49/1 303/42/1 304/39/1
f 305/48/1 306/49/1 307/42/1 308/39/1
f 309/48/1 310/49/1 311/42/1 312/39/1
f 313/48/1 314/49/1 315/42/1 316/39/1
f 317/48/1 318/49/1 319/42/1 320/39/1
f 321/48/1 322/49/1 323/42/1 324/39/1
f 325/48/1 326/49/1 327/42/1 328/39/1
f 329/48/1 330/49/1 331/42/1 332/39/1
f 333/49/1 334/50/1 335/44/1 336/42/1
f 337/51/1 338/52/1 339/53/1 340/54/1
f 341/52/1 342/55/1 343/56/1 344/53/1
f 345/57/1 346/58/1 347/59/1 348/60/1
f 349/47/1 350/48/1 351/39/1 352/38/1
f 353/48/1 354/49/1 355/42/1 356/39/1
f 357/38/1 358/39/1 359/40/1 360/41/1
f 361/39/1 362/42/1 363/43/1 364/40/1
f 365/39/1 366/42/1 367/43/1 368/40/1
f 369/39/1 370/42/1 371/43/1 372/40/1
f 373/39/1 374/42/1 375/43/1 376/40/1
f 377/42/1 378/44/1 379/45/1 380/43/1
f 381/48/1 382/49/1 383/42/1 384/39/1
f 385/49/1 386/50/1 387/44/1 388/42/1
f 389/61/1 390/62/1 391/52/1 392/51/1
f 393/62/1 394/63/1 395/55/1 396/52/1
f 397/64/1 398/65/1 399/58/1 400/57/1
f 401/47/1 402/48/1 403/39/1 404/38/1
f 405/48/1 406/49/1 407/42/1 408/39/1
f 409/47/1 410/48/1 411/39/1 412/38/1
f 413/48/1 414/49/1 415/42/1 416/39/1
f 417/48/1 418/49/1 419/42/1 420/39/1
f 421/48/1 422/49/1 423/42/1 424/39/1
f 425/48/1 426/49/1 427/42/1 428/39/1
f 429/49/1 430/50/1 431/44/1 432/42/1
f 433/48/1 434/49/1 435/42/1 436/39/1
f 437/49/1 438/50/1 439/44/1 440/42/1
f 441/11/1 442/12/1 443/13/1 444/14/1
f 445/31/1 446/32/1 447/23/1 448/22/1
f 449/47/1 450/48/1 451/39/1 452/38/1
f 453/48/1 454/49/1 455/42/1 456/39/1
f 457/47/1 458/48/1 459/39/1 460/38/1
f 461/48/1 462/49/1 463/42/1 464/39/1
f 465/48/1 466/49/1 467/42/1 468/39/1
f 469/48/1 470/49/1 471/42/1 472/39/1
f 473/48/1 474/49/1 475/42/1 476/39/1
f 477/49/1 478/50/1 479/44/1 480/42/1
f 481/48/1 482/49/1 483/42/1 484/39/1
f 485/49/1 486/50/1 487/44/1 488/42/1
f 489/31/1 490/32/1 491/23/1 492/22/1
f 493/11/1 494/12/1 495/13/1 496/14/1
f 497/11/1 498/12/1 499/13/1 500/14/1
f 501/35/1 502/36/1 503/32/1 504/31/1
f 505/47/1 506/48/1 507/39/1 508/38/1
f 509/48/1 510/49/1 511/42/1 512/39/1
f 513/47/1 514/48/1 515/39/1 516/38/1
f 517/48/1 518/49/1 519/42/1 520/39/1
f 521/48/1 522/49/1 523/42/1 524/39/1
f 525/48/1 526/49/1 527/42/1 528/39/1
f 529/48/1 530/49/1 531/42/1 532/39/1
f 533/49/1 534/50/1 535/44/1 536/42/1
f 537/48/1 538/49/1 539/42/1 540/39/1
f 541/49/1 542/50/1 543/44/1 544/42/1
f 545/35/1 546/36/1 547/32/1 548/31/1
f 549/37/1 550/31/1 551/22/1 552/21/1
f 553/11/1 554/12/1 555/13/1 556/14/1
f 557/11/1 558/12/1 559/13/1 560/14/1
f 561/47/1 562/48/1 563/39/1 564/38/1
f 565/48/1 566/49/1 567/42/1 568/39/1
f 569/66/1 570/67/1 571/48/1 572/47/1
f 573/67/1 574/68/1 575/49/1 576/48/1
f 577/67/1 578/68/1 579/49/1 580/48/1
f 581/67/1 582/68/1 583/49/1 584/48/1
f 585/67/1 586/68/1 587/49/1 588/48/1
f 589/68/1 590/69/1 591/50/1 592/49/1
f 593/48/1 594/49/1 595/42/1 596/39/1
f 597/49/1 598/50/1 599/44/1 600/42/1
f 601/46/1 602/35/1 603/31/1 604/37/1
f 605/11/1 606/12/1 607/13/1 608/14/1
f 609/11/1 610/12/1 611/13/1 612/14/1
f 613/47/1 614/48/1 615/39/1 616/38/1
f 617/48/1 618/49/1 619/42/1 620/39/1
f 621/48/1 622/49/1 623/42/1 624/39/1
f 625/48/1 626/49/1 627/42/1 628/39/1
f 629/48/1 630/49/1 631/42/1 632/39/1
f 633/48/1 634/49/1 635/42/1 636/39/1
f 637/48/1 638/49/1 639/42/1 640/39/1
f 641/48/1 642/49/1 643/42/1 644/39/1
f 645/48/1 646/49/1 647/42/1 648/39/1
f 649/49/1 650/50/1 651/44/1 652/42/1
f 653/11/1 654/12/1 655/13/1 656/14/1
f 657/66/1 658/67/1 659/48/1 660/47/1
f 661/67/1 662/68/1 663/49/1 664/48/1
f 665/67/1 666/68/1 667/49/1 668/48/1
f 669/67/1 670/68/1 671/49/1 672/48/1
f 673/67/1 674/68/1 675/49/1 676/48/1
f 677/67/1 678/68/1 679/49/1 680/48/1
f 681/67/1 682/68/1 683/49/1 684/48/1
f 685/67/1 686/68/1 687/49/1 688/48/1
f 689/67/1 690/68/1 691/49/1 692/48/1
f 693/68/1 694/69/1 695/50/1 696/49/1
f 697/25/1 698/26/1 699/27/1 700/28/1
f 701/31/1 702/32/1 703/23/1 704/22/1
f 705/25/1 706/26/1 707/27/1 708/28/1
f 709/29/1 710/30/1 711/26/1 712/25/1
f 713/35/1 714/36/1 715/32/1 716/31/1
f 717/29/1 718/30/1 719/26/1 720/25/1
f 721/33/1 722/34/1 723/30/1 724/29/1
f 725/33/1 726/34/1 727/30/1 728/29/1
f 729/57/1 730/58/1 731/59/1 732/60/1
f 733/37/1 734/31/1 735/22/1 736/21/1
f 737/31/1 738/32/1 739/23/1 740/22/1
f 741/64/1 742/65/1 743/58/1 744/57/1
f 745/46/1 746/35/1 747/31/1 748/37/1
f 749/35/1 750/36/1 751/32/1 752/31/1
f 753/31/1 754/32/1 755/23/1 756/22/1
f 757/37/1 758/31/1 759/22/1 760/21/1
f 761/35/1 762/36/1 763/32/1 764/31/1
f 765/46/1 766/35/1 767/31/1 768/37/1
f 769/11/1 770/12/1 771/13/1 772/14/1
f 773/11/1 774/12/1 775/13/1 776/14/1
f 777/11/1 778/12/1 779/13/1 780/14/1
f 781/11/1 782/12/1 783/13/1 784/14/1

