# Tiled2Unity generated file. Do not modify by hand.
# Wavefront file for 'BottomRoom_mesh_0004.obj'

# Vertices (Count = 204)
v -16 -32 0
v -32 -32 0
v -32 -16 0
v -16 -16 0
v -32 -32 0
v -48 -32 0
v -48 -16 0
v -32 -16 0
v -48 -32 0
v -64 -32 0
v -64 -16 0
v -48 -16 0
v -64 -32 0
v -80 -32 0
v -80 -16 0
v -64 -16 0
v -16 -48 0
v -32 -48 0
v -32 -32 0
v -16 -32 0
v -32 -48 0
v -48 -48 0
v -48 -32 0
v -32 -32 0
v -48 -48 0
v -64 -48 0
v -64 -32 0
v -48 -32 0
v -64 -48 0
v -80 -48 0
v -80 -32 0
v -64 -32 0
v -16 -64 0
v -32 -64 0
v -32 -48 0
v -16 -48 0
v -32 -64 0
v -48 -64 0
v -48 -48 0
v -32 -48 0
v -48 -64 0
v -64 -64 0
v -64 -48 0
v -48 -48 0
v -64 -64 0
v -80 -64 0
v -80 -48 0
v -64 -48 0
v -80 -80 0
v -96 -80 0
v -96 -64 0
v -80 -64 0
v -96 -80 0
v -112 -80 0
v -112 -64 0
v -96 -64 0
v -112 -80 0
v -128 -80 0
v -128 -64 0
v -112 -64 0
v -128 -80 0
v -144 -80 0
v -144 -64 0
v -128 -64 0
v -144 -80 0
v -160 -80 0
v -160 -64 0
v -144 -64 0
v -160 -80 0
v -176 -80 0
v -176 -64 0
v -160 -64 0
v -176 -80 0
v -192 -80 0
v -192 -64 0
v -176 -64 0
v -192 -80 0
v -208 -80 0
v -208 -64 0
v -192 -64 0
v -208 -80 0
v -224 -80 0
v -224 -64 0
v -208 -64 0
v -80 -96 0
v -96 -96 0
v -96 -80 0
v -80 -80 0
v -96 -96 0
v -112 -96 0
v -112 -80 0
v -96 -80 0
v -112 -96 0
v -128 -96 0
v -128 -80 0
v -112 -80 0
v -128 -96 0
v -144 -96 0
v -144 -80 0
v -128 -80 0
v -144 -96 0
v -160 -96 0
v -160 -80 0
v -144 -80 0
v -160 -96 0
v -176 -96 0
v -176 -80 0
v -160 -80 0
v -176 -96 0
v -192 -96 0
v -192 -80 0
v -176 -80 0
v -192 -96 0
v -208 -96 0
v -208 -80 0
v -192 -80 0
v -208 -96 0
v -224 -96 0
v -224 -80 0
v -208 -80 0
v -80 -112 0
v -96 -112 0
v -96 -96 0
v -80 -96 0
v -96 -112 0
v -112 -112 0
v -112 -96 0
v -96 -96 0
v -112 -112 0
v -128 -112 0
v -128 -96 0
v -112 -96 0
v -128 -112 0
v -144 -112 0
v -144 -96 0
v -128 -96 0
v -144 -112 0
v -160 -112 0
v -160 -96 0
v -144 -96 0
v -160 -112 0
v -176 -112 0
v -176 -96 0
v -160 -96 0
v -176 -112 0
v -192 -112 0
v -192 -96 0
v -176 -96 0
v -192 -112 0
v -208 -112 0
v -208 -96 0
v -192 -96 0
v -208 -112 0
v -224 -112 0
v -224 -96 0
v -208 -96 0
v -192 -144 0
v -208 -144 0
v -208 -128 0
v -192 -128 0
v -208 -144 0
v -224 -144 0
v -224 -128 0
v -208 -128 0
v -192 -160 0
v -208 -160 0
v -208 -144 0
v -192 -144 0
v -208 -160 0
v -224 -160 0
v -224 -144 0
v -208 -144 0
v -64 -240 0
v -80 -240 0
v -80 -224 0
v -64 -224 0
v -80 -240 0
v -96 -240 0
v -96 -224 0
v -80 -224 0
v -240 -240 0
v -256 -240 0
v -256 -224 0
v -240 -224 0
v -256 -240 0
v -272 -240 0
v -272 -224 0
v -256 -224 0
v -64 -256 0
v -80 -256 0
v -80 -240 0
v -64 -240 0
v -80 -256 0
v -96 -256 0
v -96 -240 0
v -80 -240 0
v -240 -256 0
v -256 -256 0
v -256 -240 0
v -240 -240 0
v -256 -256 0
v -272 -256 0
v -272 -240 0
v -256 -240 0

# Texture cooridinates (Count = 37)
vt 0.16 0.32
vt 0.2 0.32
vt 0.2 0.36
vt 0.16 0.36
vt 0.24 0.32
vt 0.24 0.36
vt 0.28 0.32
vt 0.28 0.36
vt 0.32 0.32
vt 0.32 0.36
vt 0.16 0.28
vt 0.2 0.28
vt 0.24 0.28
vt 0.28 0.28
vt 0.32 0.28
vt 0.16 0.24
vt 0.2 0.24
vt 0.24 0.24
vt 0.28 0.24
vt 0.32 0.24
vt 0.4 0.32
vt 0.44 0.32
vt 0.44 0.36
vt 0.4 0.36
vt 0.4 0.28
vt 0.44 0.28
vt 0.4 0.24
vt 0.44 0.24
vt 0.56 0.2
vt 0.6 0.2
vt 0.6 0.24
vt 0.56 0.24
vt 0.64 0.2
vt 0.64 0.24
vt 0.56 0.16
vt 0.6 0.16
vt 0.64 0.16

# Normal
vn 0 0 -1

# Mesh description
g BottomRoom_mesh_0004

# Faces
f 1/1/1 2/2/1 3/3/1 4/4/1
f 5/2/1 6/5/1 7/6/1 8/3/1
f 9/5/1 10/7/1 11/8/1 12/6/1
f 13/7/1 14/9/1 15/10/1 16/8/1
f 17/11/1 18/12/1 19/2/1 20/1/1
f 21/12/1 22/13/1 23/5/1 24/2/1
f 25/13/1 26/14/1 27/7/1 28/5/1
f 29/14/1 30/15/1 31/9/1 32/7/1
f 33/16/1 34/17/1 35/12/1 36/11/1
f 37/17/1 38/18/1 39/13/1 40/12/1
f 41/18/1 42/19/1 43/14/1 44/13/1
f 45/19/1 46/20/1 47/15/1 48/14/1
f 49/21/1 50/22/1 51/23/1 52/24/1
f 53/21/1 54/22/1 55/23/1 56/24/1
f 57/21/1 58/22/1 59/23/1 60/24/1
f 61/21/1 62/22/1 63/23/1 64/24/1
f 65/21/1 66/22/1 67/23/1 68/24/1
f 69/21/1 70/22/1 71/23/1 72/24/1
f 73/21/1 74/22/1 75/23/1 76/24/1
f 77/21/1 78/22/1 79/23/1 80/24/1
f 81/21/1 82/22/1 83/23/1 84/24/1
f 85/25/1 86/26/1 87/22/1 88/21/1
f 89/25/1 90/26/1 91/22/1 92/21/1
f 93/25/1 94/26/1 95/22/1 96/21/1
f 97/25/1 98/26/1 99/22/1 100/21/1
f 101/25/1 102/26/1 103/22/1 104/21/1
f 105/25/1 106/26/1 107/22/1 108/21/1
f 109/25/1 110/26/1 111/22/1 112/21/1
f 113/25/1 114/26/1 115/22/1 116/21/1
f 117/25/1 118/26/1 119/22/1 120/21/1
f 121/27/1 122/28/1 123/26/1 124/25/1
f 125/27/1 126/28/1 127/26/1 128/25/1
f 129/27/1 130/28/1 131/26/1 132/25/1
f 133/27/1 134/28/1 135/26/1 136/25/1
f 137/27/1 138/28/1 139/26/1 140/25/1
f 141/27/1 142/28/1 143/26/1 144/25/1
f 145/27/1 146/28/1 147/26/1 148/25/1
f 149/27/1 150/28/1 151/26/1 152/25/1
f 153/27/1 154/28/1 155/26/1 156/25/1
f 157/29/1 158/30/1 159/31/1 160/32/1
f 161/30/1 162/33/1 163/34/1 164/31/1
f 165/35/1 166/36/1 167/30/1 168/29/1
f 169/36/1 170/37/1 171/33/1 172/30/1
f 173/29/1 174/30/1 175/31/1 176/32/1
f 177/30/1 178/33/1 179/34/1 180/31/1
f 181/29/1 182/30/1 183/31/1 184/32/1
f 185/30/1 186/33/1 187/34/1 188/31/1
f 189/35/1 190/36/1 191/30/1 192/29/1
f 193/36/1 194/37/1 195/33/1 196/30/1
f 197/35/1 198/36/1 199/30/1 200/29/1
f 201/36/1 202/37/1 203/33/1 204/30/1

