# Tiled2Unity generated file. Do not modify by hand.
# Wavefront file for 'LeftRoom_mesh_0002.obj'

# Vertices (Count = 20)
v -128 -96 0
v -144 -96 0
v -144 -80 0
v -128 -80 0
v -224 -96 0
v -240 -96 0
v -240 -80 0
v -224 -80 0
v -256 -208 0
v -272 -208 0
v -272 -192 0
v -256 -192 0
v -144 -240 0
v -160 -240 0
v -160 -224 0
v -144 -224 0
v -240 -272 0
v -256 -272 0
v -256 -256 0
v -240 -256 0

# Texture cooridinates (Count = 8)
vt 0.36 0.12
vt 0.4 0.12
vt 0.4 0.16
vt 0.36 0.16
vt 0.08 0.12
vt 0.12 0.12
vt 0.12 0.16
vt 0.08 0.16

# Normal
vn 0 0 -1

# Mesh description
g LeftRoom_mesh_0002

# Faces
f 1/1/1 2/2/1 3/3/1 4/4/1
f 5/5/1 6/6/1 7/7/1 8/8/1
f 9/1/1 10/2/1 11/3/1 12/4/1
f 13/5/1 14/6/1 15/7/1 16/8/1
f 17/1/1 18/2/1 19/3/1 20/4/1

