# Tiled2Unity generated file. Do not modify by hand.
# Wavefront file for 'TopRoom_mesh_0005.obj'

# Vertices (Count = 192)
v -16 -48 0
v -32 -48 0
v -32 -32 0
v -16 -32 0
v -288 -48 0
v -304 -48 0
v -304 -32 0
v -288 -32 0
v -80 -64 0
v -96 -64 0
v -96 -48 0
v -80 -48 0
v -208 -112 0
v -224 -112 0
v -224 -96 0
v -208 -96 0
v -32 -128 0
v -48 -128 0
v -48 -112 0
v -32 -112 0
v -272 -128 0
v -288 -128 0
v -288 -112 0
v -272 -112 0
v -32 -144 0
v -48 -144 0
v -48 -128 0
v -32 -128 0
v -272 -144 0
v -288 -144 0
v -288 -128 0
v -272 -128 0
v -32 -208 0
v -48 -208 0
v -48 -192 0
v -32 -192 0
v -272 -208 0
v -288 -208 0
v -288 -192 0
v -272 -192 0
v -32 -224 0
v -48 -224 0
v -48 -208 0
v -32 -208 0
v -112 -224 0
v -128 -224 0
v -128 -208 0
v -112 -208 0
v -128 -224 0
v -144 -224 0
v -144 -208 0
v -128 -208 0
v -144 -224 0
v -160 -224 0
v -160 -208 0
v -144 -208 0
v -160 -224 0
v -176 -224 0
v -176 -208 0
v -160 -208 0
v -176 -224 0
v -192 -224 0
v -192 -208 0
v -176 -208 0
v -192 -224 0
v -208 -224 0
v -208 -208 0
v -192 -208 0
v -208 -224 0
v -224 -224 0
v -224 -208 0
v -208 -208 0
v -272 -224 0
v -288 -224 0
v -288 -208 0
v -272 -208 0
v -112 -240 0
v -128 -240 0
v -128 -224 0
v -112 -224 0
v -128 -240 0
v -144 -240 0
v -144 -224 0
v -128 -224 0
v -144 -240 0
v -160 -240 0
v -160 -224 0
v -144 -224 0
v -160 -240 0
v -176 -240 0
v -176 -224 0
v -160 -224 0
v -176 -240 0
v -192 -240 0
v -192 -224 0
v -176 -224 0
v -192 -240 0
v -208 -240 0
v -208 -224 0
v -192 -224 0
v -208 -240 0
v -224 -240 0
v -224 -224 0
v -208 -224 0
v -112 -256 0
v -128 -256 0
v -128 -240 0
v -112 -240 0
v -128 -256 0
v -144 -256 0
v -144 -240 0
v -128 -240 0
v -144 -256 0
v -160 -256 0
v -160 -240 0
v -144 -240 0
v -160 -256 0
v -176 -256 0
v -176 -240 0
v -160 -240 0
v -176 -256 0
v -192 -256 0
v -192 -240 0
v -176 -240 0
v -192 -256 0
v -208 -256 0
v -208 -240 0
v -192 -240 0
v -208 -256 0
v -224 -256 0
v -224 -240 0
v -208 -240 0
v -64 -272 0
v -80 -272 0
v -80 -256 0
v -64 -256 0
v -128 -272 0
v -144 -272 0
v -144 -256 0
v -128 -256 0
v -144 -272 0
v -160 -272 0
v -160 -256 0
v -144 -256 0
v -160 -272 0
v -176 -272 0
v -176 -256 0
v -160 -256 0
v -176 -272 0
v -192 -272 0
v -192 -256 0
v -176 -256 0
v -192 -272 0
v -208 -272 0
v -208 -256 0
v -192 -256 0
v -128 -288 0
v -144 -288 0
v -144 -272 0
v -128 -272 0
v -144 -288 0
v -160 -288 0
v -160 -272 0
v -144 -272 0
v -160 -288 0
v -176 -288 0
v -176 -272 0
v -160 -272 0
v -176 -288 0
v -192 -288 0
v -192 -272 0
v -176 -272 0
v -192 -288 0
v -208 -288 0
v -208 -272 0
v -192 -272 0
v -16 -304 0
v -32 -304 0
v -32 -288 0
v -16 -288 0
v -32 -304 0
v -48 -304 0
v -48 -288 0
v -32 -288 0
v -272 -304 0
v -288 -304 0
v -288 -288 0
v -272 -288 0
v -288 -304 0
v -304 -304 0
v -304 -288 0
v -288 -288 0

# Texture cooridinates (Count = 64)
vt 0.24 0.04000002
vt 0.28 0.04000002
vt 0.28 0.07999998
vt 0.24 0.07999998
vt 0.28 0.12
vt 0.32 0.12
vt 0.32 0.16
vt 0.28 0.16
vt 0.04 0.2
vt 0.08 0.2
vt 0.08 0.24
vt 0.04 0.24
vt 0.04 0.16
vt 0.08 0.16
vt 0.4 0.32
vt 0.44 0.32
vt 0.44 0.36
vt 0.4 0.36
vt 0.8 0.4
vt 0.84 0.4
vt 0.84 0.44
vt 0.8 0.44
vt 0.88 0.4
vt 0.88 0.44
vt 0.92 0.4
vt 0.92 0.44
vt 0.96 0.4
vt 0.96 0.44
vt 1 0.4
vt 1 0.44
vt 0.4 0.28
vt 0.44 0.28
vt 0.8 0.36
vt 0.84 0.36
vt 0.88 0.36
vt 0.92 0.36
vt 0.96 0.36
vt 1 0.36
vt 0.4 0.24
vt 0.44 0.24
vt 0.8 0.32
vt 0.84 0.32
vt 0.88 0.32
vt 0.92 0.32
vt 0.96 0.32
vt 1 0.32
vt 0.8 0.28
vt 0.84 0.28
vt 0.88 0.28
vt 0.92 0.28
vt 0.96 0.28
vt 1 0.28
vt 0.8 0.24
vt 0.84 0.24
vt 0.88 0.24
vt 0.92 0.24
vt 0.96 0.24
vt 1 0.24
vt 0.12 0.12
vt 0.16 0.12
vt 0.16 0.16
vt 0.12 0.16
vt 0.2 0.12
vt 0.2 0.16

# Normal
vn 0 0 -1

# Mesh description
g TopRoom_mesh_0005

# Faces
f 1/1/1 2/2/1 3/3/1 4/4/1
f 5/1/1 6/2/1 7/3/1 8/4/1
f 9/5/1 10/6/1 11/7/1 12/8/1
f 13/5/1 14/6/1 15/7/1 16/8/1
f 17/9/1 18/10/1 19/11/1 20/12/1
f 21/9/1 22/10/1 23/11/1 24/12/1
f 25/13/1 26/14/1 27/10/1 28/9/1
f 29/13/1 30/14/1 31/10/1 32/9/1
f 33/9/1 34/10/1 35/11/1 36/12/1
f 37/9/1 38/10/1 39/11/1 40/12/1
f 41/13/1 42/14/1 43/10/1 44/9/1
f 45/15/1 46/16/1 47/17/1 48/18/1
f 49/19/1 50/20/1 51/21/1 52/22/1
f 53/20/1 54/23/1 55/24/1 56/21/1
f 57/23/1 58/25/1 59/26/1 60/24/1
f 61/25/1 62/27/1 63/28/1 64/26/1
f 65/27/1 66/29/1 67/30/1 68/28/1
f 69/15/1 70/16/1 71/17/1 72/18/1
f 73/13/1 74/14/1 75/10/1 76/9/1
f 77/31/1 78/32/1 79/16/1 80/15/1
f 81/33/1 82/34/1 83/20/1 84/19/1
f 85/34/1 86/35/1 87/23/1 88/20/1
f 89/35/1 90/36/1 91/25/1 92/23/1
f 93/36/1 94/37/1 95/27/1 96/25/1
f 97/37/1 98/38/1 99/29/1 100/27/1
f 101/31/1 102/32/1 103/16/1 104/15/1
f 105/39/1 106/40/1 107/32/1 108/31/1
f 109/41/1 110/42/1 111/34/1 112/33/1
f 113/42/1 114/43/1 115/35/1 116/34/1
f 117/43/1 118/44/1 119/36/1 120/35/1
f 121/44/1 122/45/1 123/37/1 124/36/1
f 125/45/1 126/46/1 127/38/1 128/37/1
f 129/39/1 130/40/1 131/32/1 132/31/1
f 133/5/1 134/6/1 135/7/1 136/8/1
f 137/47/1 138/48/1 139/42/1 140/41/1
f 141/48/1 142/49/1 143/43/1 144/42/1
f 145/49/1 146/50/1 147/44/1 148/43/1
f 149/50/1 150/51/1 151/45/1 152/44/1
f 153/51/1 154/52/1 155/46/1 156/45/1
f 157/53/1 158/54/1 159/48/1 160/47/1
f 161/54/1 162/55/1 163/49/1 164/48/1
f 165/55/1 166/56/1 167/50/1 168/49/1
f 169/56/1 170/57/1 171/51/1 172/50/1
f 173/57/1 174/58/1 175/52/1 176/51/1
f 177/59/1 178/60/1 179/61/1 180/62/1
f 181/60/1 182/63/1 183/64/1 184/61/1
f 185/59/1 186/60/1 187/61/1 188/62/1
f 189/60/1 190/63/1 191/64/1 192/61/1

